<?xml version="1.0" standalone="no"?>
<!DOCTYPE svg PUBLIC "-//W3C//DTD SVG 20010904//EN"
 "http://www.w3.org/TR/2001/REC-SVG-20010904/DTD/svg10.dtd">
<svg version="1.0" xmlns="http://www.w3.org/2000/svg"
 width="693.000000pt" height="689.000000pt" viewBox="0 0 693.000000 689.000000"
 preserveAspectRatio="xMidYMid meet">

<g transform="translate(0.000000,689.000000) scale(0.100000,-0.100000)"
fill="#000000" stroke="none">
<path d="M3249 6805 c-4 -3 -53 -8 -110 -11 -57 -3 -120 -9 -139 -14 -19 -6
-48 -10 -64 -10 -16 0 -43 -4 -60 -9 -17 -5 -71 -16 -121 -24 -89 -14 -239
-52 -260 -65 -5 -4 -17 -5 -27 -4 -9 2 -19 -2 -23 -8 -3 -5 -16 -10 -29 -10
-12 0 -26 -4 -31 -8 -6 -4 -35 -16 -65 -26 -30 -10 -68 -24 -85 -31 -67 -28
-100 -40 -107 -37 -5 1 -8 -3 -8 -8 0 -6 -5 -10 -11 -10 -16 0 -189 -83 -238
-114 -22 -14 -47 -26 -56 -26 -8 0 -15 -5 -15 -11 0 -5 -4 -8 -9 -5 -4 3 -21
-6 -37 -19 -16 -14 -34 -25 -40 -25 -7 0 -15 -7 -18 -16 -3 -8 -11 -12 -16 -9
-6 4 -19 -3 -29 -14 -10 -12 -23 -21 -28 -21 -6 0 -22 -11 -37 -25 -14 -13
-30 -25 -34 -25 -11 -1 -127 -87 -147 -110 -10 -11 -22 -20 -27 -20 -5 0 -19
-10 -32 -22 -38 -37 -66 -58 -76 -58 -6 0 -10 -7 -10 -17 0 -9 -3 -14 -6 -10
-4 3 -26 -13 -51 -36 -24 -23 -49 -43 -54 -45 -5 -2 -9 -7 -9 -11 0 -4 -49
-57 -110 -118 -60 -61 -106 -113 -103 -117 4 -3 -1 -6 -11 -6 -9 0 -15 -4 -12
-8 3 -5 -14 -28 -37 -53 -23 -24 -53 -60 -67 -79 -13 -19 -28 -38 -33 -41 -5
-3 -9 -10 -10 -15 -1 -5 -5 -8 -9 -6 -5 1 -8 -4 -8 -11 0 -7 -8 -22 -17 -33
-18 -20 -23 -27 -63 -89 -10 -16 -24 -36 -30 -42 -5 -7 -15 -24 -20 -38 -5
-14 -14 -25 -20 -25 -6 0 -9 -4 -5 -9 3 -5 -2 -16 -10 -24 -8 -9 -15 -19 -15
-22 0 -4 -9 -19 -20 -35 -11 -15 -17 -30 -13 -33 3 -4 -2 -9 -11 -13 -9 -3
-16 -12 -16 -19 0 -15 -62 -139 -72 -143 -5 -2 -8 -12 -8 -21 0 -10 -3 -21 -7
-25 -5 -4 -8 -11 -9 -14 0 -4 -10 -29 -22 -55 -12 -27 -22 -53 -22 -58 0 -5
-4 -9 -9 -9 -5 0 -11 -12 -14 -27 -6 -38 -40 -127 -49 -131 -5 -2 -8 -14 -8
-27 0 -13 -5 -37 -11 -52 -22 -53 -27 -68 -37 -108 -10 -37 -22 -88 -23 -100
0 -2 -5 -19 -10 -37 -6 -18 -12 -51 -15 -72 -3 -22 -9 -47 -13 -55 -4 -9 -9
-33 -10 -54 -1 -20 -5 -47 -10 -60 -4 -12 -9 -51 -10 -87 -1 -35 -6 -67 -10
-70 -5 -3 -11 -63 -15 -135 -3 -71 -9 -170 -12 -220 -4 -50 -1 -126 5 -170 6
-44 13 -120 16 -170 6 -109 20 -234 29 -255 3 -8 8 -35 10 -60 5 -45 16 -101
35 -175 5 -22 10 -41 11 -42 0 -2 0 -4 1 -5 2 -8 11 -45 13 -58 2 -8 6 -23 10
-32 4 -9 9 -22 10 -30 6 -27 18 -73 23 -88 36 -96 53 -148 53 -162 0 -10 4
-18 9 -18 5 0 15 -17 21 -38 18 -56 96 -224 147 -315 17 -31 29 -57 25 -57 -4
0 -2 -4 3 -8 13 -9 33 -40 48 -75 6 -15 15 -27 20 -27 4 0 6 -4 3 -9 -3 -4 6
-21 19 -37 14 -16 25 -34 25 -39 0 -6 9 -16 20 -23 12 -7 18 -17 15 -22 -3 -6
-1 -10 6 -10 7 0 10 -3 6 -6 -3 -3 1 -13 8 -22 8 -10 37 -48 66 -87 28 -38 57
-74 63 -80 7 -5 23 -26 36 -45 13 -19 42 -54 64 -78 22 -23 47 -52 55 -63 9
-12 25 -29 35 -38 11 -9 29 -27 40 -39 83 -94 299 -282 416 -362 19 -13 37
-27 40 -30 9 -9 184 -127 230 -154 25 -15 70 -38 100 -52 30 -14 57 -29 60
-33 3 -4 21 -13 40 -21 19 -8 37 -16 40 -19 3 -4 16 -11 30 -17 14 -7 50 -24
81 -38 31 -14 59 -26 63 -26 8 0 24 -7 118 -49 26 -11 56 -21 66 -21 10 0 22
-4 27 -8 11 -10 105 -40 150 -48 16 -3 35 -10 42 -16 7 -5 18 -8 25 -5 7 2 25
-2 41 -10 15 -7 27 -11 27 -9 0 3 15 0 33 -5 33 -10 118 -27 172 -35 17 -2 50
-8 75 -14 25 -6 74 -12 110 -14 36 -3 115 -10 175 -16 120 -13 514 -5 575 11
20 5 58 9 85 10 28 1 75 7 105 15 31 7 65 11 77 8 11 -3 24 -1 27 5 4 6 25 11
47 11 22 0 53 7 68 15 16 8 31 12 34 9 3 -3 20 -1 39 4 18 6 53 16 78 23 122
32 217 63 275 88 22 10 60 24 85 31 25 8 51 20 58 27 8 7 18 11 23 8 5 -4 9
-2 9 3 0 5 19 15 43 22 23 8 78 34 122 57 44 24 105 56 135 70 30 15 57 30 60
33 7 9 91 63 123 79 15 8 27 18 27 23 0 4 6 8 13 8 8 0 22 9 32 20 10 11 22
20 27 20 13 0 194 139 244 187 7 7 15 13 18 13 4 0 80 74 171 165 91 91 163
165 160 165 -5 0 8 15 92 108 18 19 31 38 30 41 -1 4 10 19 25 34 16 15 35 41
43 57 9 17 20 30 25 30 6 0 10 6 10 13 0 7 9 23 20 35 11 12 20 24 20 27 0 9
63 98 75 107 6 4 7 8 3 8 -4 0 3 15 16 34 12 19 29 48 36 65 7 17 16 31 21 31
5 0 9 6 9 13 0 6 16 41 35 77 19 36 38 72 41 80 3 8 22 47 40 87 19 39 37 81
39 94 3 12 9 27 15 33 5 5 10 18 10 28 0 9 9 33 20 53 11 20 20 46 20 60 0 13
5 27 10 30 6 3 10 17 10 30 0 13 5 27 10 30 6 3 10 19 10 34 0 15 3 31 7 35 4
4 9 19 11 34 2 15 7 31 13 37 5 5 9 24 9 41 0 18 5 36 11 39 5 4 8 12 6 18 -2
7 0 26 6 42 12 40 27 126 34 200 3 33 9 65 13 70 5 6 9 42 9 81 0 38 4 82 10
96 13 34 14 513 2 556 -5 18 -11 65 -12 105 -1 39 -6 79 -10 89 -5 9 -9 38
-10 65 -1 26 -6 56 -11 66 -5 9 -9 37 -10 62 0 25 -4 48 -9 51 -5 3 -9 23 -9
44 0 21 -4 40 -10 42 -5 2 -10 19 -12 38 -1 19 -5 37 -9 40 -4 3 -9 19 -12 35
-4 29 -8 44 -28 93 -5 13 -9 34 -9 47 0 13 -4 27 -10 30 -5 3 -10 17 -10 30 0
13 -4 25 -10 27 -5 2 -11 15 -12 31 -1 15 -6 27 -10 27 -4 0 -8 9 -8 19 0 11
-4 23 -10 26 -5 3 -10 15 -10 26 0 11 -7 27 -15 36 -8 8 -13 19 -10 24 4 5 1
9 -4 9 -6 0 -11 8 -11 18 0 9 -9 31 -19 49 -11 17 -21 40 -23 50 -2 10 -9 24
-16 31 -7 8 -10 18 -7 23 4 5 2 9 -3 9 -10 0 -38 60 -34 73 1 4 -2 7 -8 7 -5
0 -20 21 -32 48 -12 26 -28 55 -36 65 -8 9 -12 17 -8 17 4 0 -2 10 -14 22 -11
12 -20 27 -20 34 0 6 -7 14 -15 18 -8 3 -14 9 -13 13 3 12 -43 83 -54 83 -5 0
-7 4 -4 9 4 5 2 11 -2 13 -5 1 -29 33 -54 70 -25 37 -48 64 -52 61 -3 -4 -6 0
-6 9 0 8 -9 23 -20 33 -11 10 -20 22 -20 26 0 4 -21 29 -46 55 -25 27 -60 66
-77 87 -18 22 -38 45 -45 51 -15 12 -26 23 -93 93 -26 26 -75 72 -110 102 -35
30 -76 67 -91 83 -15 16 -30 29 -33 28 -4 -1 -22 12 -41 29 -18 17 -36 31 -39
31 -5 0 -36 24 -60 48 -8 6 -18 12 -23 12 -6 0 -12 4 -14 8 -4 11 -86 65 -120
80 -16 6 -28 16 -28 22 0 5 -5 10 -11 10 -6 0 -29 13 -52 28 -23 16 -57 35
-74 43 -18 8 -33 17 -33 20 0 7 -40 22 -53 20 -4 -1 -10 6 -13 14 -3 8 -10 13
-14 10 -5 -3 -14 0 -22 7 -7 7 -20 14 -28 16 -7 2 -25 11 -39 22 -14 10 -28
18 -31 18 -3 0 -18 6 -35 12 -61 25 -80 33 -100 40 -11 5 -42 18 -69 30 -26
11 -50 19 -53 16 -3 -2 -22 4 -44 15 -21 12 -51 23 -67 25 -16 3 -54 14 -83
24 -30 11 -64 20 -76 20 -12 0 -23 4 -25 8 -7 19 -439 93 -588 101 -131 7
-476 11 -481 6z m537 -80 c195 -21 187 -19 349 -54 735 -156 1382 -547 1852
-1117 49 -61 233 -310 233 -317 0 -2 23 -42 51 -88 58 -96 150 -277 200 -394
18 -44 36 -82 39 -85 3 -3 6 -12 8 -20 2 -8 21 -67 42 -130 66 -194 110 -383
147 -625 26 -172 26 -706 0 -880 -66 -442 -191 -816 -392 -1176 -116 -207
-294 -454 -444 -615 -36 -39 -75 -80 -86 -92 -88 -97 -346 -306 -512 -415
-436 -287 -871 -448 -1413 -524 -175 -24 -633 -24 -810 1 -498 68 -925 218
-1325 465 -661 407 -1156 1041 -1393 1781 -110 345 -155 642 -154 1020 0 378
46 676 153 1008 221 685 646 1263 1229 1677 452 319 982 517 1550 579 175 19
496 19 676 1z"/>
<path d="M3158 6655 c-760 -73 -1433 -389 -1973 -930 -517 -516 -828 -1156
-920 -1895 -24 -187 -24 -560 -2 -735 68 -523 225 -962 494 -1378 422 -655
1072 -1136 1827 -1351 49 -14 92 -24 94 -21 3 3 10 1 16 -4 6 -5 72 -20 146
-35 617 -119 1286 -49 1855 194 386 164 709 384 1011 685 174 173 278 300 407
493 358 535 537 1130 537 1784 0 520 -108 976 -339 1437 -376 750 -1036 1328
-1821 1594 -437 148 -891 203 -1332 162z m612 -56 c474 -47 946 -210 1360
-469 47 -29 101 -64 120 -78 67 -49 145 -107 165 -124 11 -9 40 -33 65 -53 69
-57 255 -240 344 -341 290 -325 528 -762 652 -1193 159 -555 165 -1163 17
-1706 -187 -689 -594 -1286 -1168 -1715 -55 -41 -101 -78 -103 -82 -2 -5 -8
-8 -14 -8 -5 0 -53 -27 -106 -60 -644 -404 -1450 -557 -2212 -420 -1134 205
-2079 1026 -2435 2115 -49 151 -69 230 -115 457 -46 233 -56 647 -20 933 57
465 233 941 495 1340 164 249 417 530 635 707 666 537 1478 781 2320 697z"/>
<path d="M3184 6445 c-4 -8 -2 -109 2 -223 l9 -207 38 -3 37 -3 0 99 c0 111 0
112 81 112 54 0 68 -17 89 -109 10 -45 20 -85 23 -87 3 -3 20 -4 39 -2 l35 3
-13 65 c-8 36 -21 87 -29 113 -15 44 -15 51 -1 73 18 27 21 106 5 136 -19 35
-70 48 -194 48 -94 0 -117 -3 -121 -15z m229 -64 c20 -16 22 -64 5 -78 -7 -6
-43 -13 -80 -16 l-66 -6 -7 49 c-4 27 -4 54 -1 59 9 15 130 8 149 -8z"/>
<path d="M2914 6416 c-66 -13 -126 -26 -133 -30 -8 -5 -10 -17 -6 -35 7 -25
17 -85 50 -286 9 -55 19 -103 23 -107 7 -6 42 -2 205 28 80 15 87 18 87 40 0
12 -4 25 -9 28 -8 6 -79 -2 -182 -20 l-37 -6 -9 63 c-6 43 -5 66 2 70 5 4 46
12 90 18 44 6 83 15 88 20 4 4 3 19 -2 33 l-9 25 -91 -16 c-50 -8 -93 -12 -96
-9 -3 3 -9 28 -14 56 -9 58 -18 53 114 73 44 6 84 15 88 19 14 12 -4 60 -22
59 -9 -1 -70 -11 -137 -23z"/>
<path d="M3683 6425 c-42 -18 -75 -71 -69 -107 11 -55 38 -80 142 -129 56 -26
104 -54 107 -63 10 -27 -10 -63 -38 -70 -62 -16 -165 22 -165 59 0 17 -31 35
-59 35 -17 0 -21 -6 -21 -30 0 -43 61 -101 123 -117 134 -36 237 9 237 102 0
57 -25 82 -135 134 -86 42 -106 55 -111 77 -10 39 24 64 85 64 54 -1 88 -17
104 -51 9 -17 22 -25 45 -27 28 -3 32 0 32 21 0 34 -36 76 -84 98 -49 22 -147
24 -193 4z"/>
<path d="M2620 6359 c-13 -6 -25 -11 -27 -13 -1 -1 -7 -65 -13 -142 -6 -76
-14 -153 -18 -170 l-7 -32 -110 129 c-60 71 -113 129 -116 129 -18 0 -69 -24
-67 -31 3 -10 308 -359 314 -359 1 0 14 5 28 11 22 10 25 19 31 103 3 50 10
118 15 151 5 33 11 99 15 148 7 94 6 96 -45 76z"/>
<path d="M4106 6223 c-63 -246 -65 -258 -66 -270 0 -6 13 -16 30 -21 36 -13
42 -4 64 85 8 32 30 119 49 193 20 74 32 138 28 142 -3 4 -20 10 -37 14 l-30
6 -38 -149z"/>
<path d="M4365 6303 c-29 -29 -17 -47 45 -71 33 -13 60 -29 60 -34 0 -6 -30
-85 -67 -176 -63 -157 -66 -165 -48 -178 44 -33 62 -14 109 116 28 76 78 195
86 204 5 4 37 -4 73 -18 36 -14 68 -26 70 -26 3 0 10 14 16 30 9 28 8 32 -12
39 -12 5 -88 36 -170 69 -130 53 -149 58 -162 45z"/>
<path d="M2066 6135 c-18 -13 -14 -23 79 -209 53 -108 100 -196 104 -196 13 0
61 25 61 32 0 3 -43 92 -95 197 -99 198 -107 208 -149 176z"/>
<path d="M4805 6058 c4 -40 11 -95 16 -122 15 -84 11 -103 -41 -187 -28 -44
-48 -85 -44 -90 3 -5 18 -15 33 -23 l27 -14 53 86 52 87 130 54 c71 30 129 60
129 66 0 6 -14 18 -32 27 -31 14 -36 13 -126 -24 -52 -22 -96 -37 -99 -35 -2
3 -9 49 -15 103 -9 87 -14 102 -37 121 -46 40 -54 32 -46 -49z"/>
<path d="M1850 6022 l-21 -17 87 -129 c56 -83 80 -127 68 -122 -63 24 -339
116 -349 116 -7 0 -24 -9 -38 -20 l-26 -20 120 -178 c66 -97 125 -178 132
-179 7 -2 23 5 36 16 l24 18 -87 128 c-48 70 -85 129 -84 130 2 2 84 -26 183
-61 159 -57 183 -63 204 -52 13 7 26 19 28 26 7 16 -225 362 -242 362 -7 0
-23 -8 -35 -18z"/>
<path d="M3265 5834 c-345 -37 -587 -105 -860 -239 -577 -285 -1001 -767
-1208 -1375 -99 -292 -140 -608 -119 -919 13 -180 30 -282 73 -451 210 -808
849 -1457 1658 -1685 380 -107 818 -114 1201 -20 110 27 263 76 317 100 17 8
34 15 37 15 17 0 207 96 296 150 464 280 837 726 1010 1205 18 50 36 99 41
110 16 38 59 211 81 325 20 102 22 147 22 405 1 314 -4 356 -64 595 -102 404
-324 794 -626 1096 -368 367 -831 597 -1364 674 -79 11 -427 21 -495 14z m443
-134 c503 -54 970 -279 1337 -645 291 -290 488 -634 590 -1030 88 -342 88
-795 0 -1137 -41 -163 -111 -349 -163 -438 -15 -25 -36 -65 -48 -90 -82 -174
-288 -432 -472 -593 -338 -294 -685 -461 -1117 -536 -251 -44 -643 -33 -891
24 -740 172 -1350 713 -1607 1425 -85 236 -137 531 -137 779 0 105 24 337 46
446 140 703 606 1296 1259 1601 198 92 476 172 676 193 120 12 413 13 527 1z"/>
<path d="M2412 5324 c-53 -37 -67 -138 -37 -272 16 -74 35 -247 35 -323 0 -72
-34 -162 -93 -248 -59 -86 -233 -264 -322 -330 -33 -25 -84 -63 -113 -84 -69
-52 -92 -86 -92 -135 0 -91 83 -115 196 -56 87 45 247 178 387 322 70 73 129
132 131 132 9 0 103 -248 123 -323 10 -42 13 -79 8 -125 -12 -116 -49 -198
-168 -376 -98 -147 -162 -301 -204 -491 -14 -64 -17 -123 -16 -300 1 -298 32
-467 114 -642 51 -106 82 -133 155 -133 48 0 59 4 91 33 34 32 36 38 40 108 4
65 0 92 -40 229 -111 387 -124 535 -66 765 31 123 64 202 128 305 33 52 82
131 110 175 50 81 101 214 101 265 0 23 9 33 48 56 100 58 203 143 358 298
l161 161 58 -149 c63 -164 76 -230 63 -336 -12 -99 -67 -214 -184 -380 -82
-117 -161 -333 -189 -519 -15 -92 -17 -149 -12 -285 9 -242 30 -364 84 -511
66 -175 102 -215 192 -215 70 0 103 25 121 91 17 63 7 144 -40 304 -64 219
-82 308 -87 451 -10 250 45 431 211 682 87 132 133 231 149 317 l13 68 64 40
c100 60 192 138 348 295 79 79 145 143 147 141 1 -2 29 -71 61 -154 106 -277
91 -371 -105 -675 -154 -238 -221 -467 -221 -758 0 -282 42 -517 119 -670 52
-104 85 -132 155 -132 62 0 100 24 122 76 18 44 18 127 -2 189 -34 111 -93
335 -110 415 -25 121 -24 290 3 410 39 177 67 239 193 435 140 219 167 302
158 490 -5 95 -9 110 -71 265 -117 298 -135 355 -161 505 -22 123 -20 261 4
365 24 103 25 142 5 180 -29 55 -59 70 -147 70 -77 0 -81 -1 -113 -33 -41 -41
-54 -106 -36 -187 27 -124 43 -251 44 -360 2 -133 -6 -158 -95 -287 -88 -128
-374 -394 -392 -365 -8 13 -107 265 -131 332 -71 203 -89 298 -89 465 0 105 4
152 17 188 9 26 17 75 17 109 0 57 -2 63 -39 99 -38 38 -40 39 -110 39 -124 0
-161 -37 -161 -157 0 -37 4 -84 10 -103 16 -57 40 -260 40 -336 0 -92 -20
-150 -88 -254 -88 -133 -378 -409 -403 -383 -11 12 -125 300 -153 389 -56 176
-69 251 -69 399 0 115 4 155 22 224 28 101 20 142 -34 190 -33 29 -41 31 -113
31 -54 0 -84 -5 -100 -16z"/>
<path d="M3014 1763 c-57 -37 -58 -40 -41 -58 13 -12 21 -14 37 -5 20 10 20 8
20 -110 l0 -120 30 0 30 0 0 150 c0 135 -2 150 -18 159 -14 8 -28 4 -58 -16z"/>
<path d="M3282 1775 c-45 -19 -68 -73 -52 -121 16 -48 44 -64 113 -64 l59 0
-7 -27 c-3 -15 -12 -31 -18 -35 -21 -13 -74 -9 -87 7 -17 20 -60 20 -60 0 0
-9 11 -27 25 -40 35 -36 121 -36 164 1 31 26 31 26 31 126 0 110 -7 131 -50
153 -36 19 -75 19 -118 0z m85 -41 c41 -11 38 -85 -6 -99 -10 -3 -30 -1 -45 4
-21 9 -26 17 -26 45 0 46 26 63 77 50z"/>
<path d="M3564 1780 c-26 -10 -66 -59 -58 -71 10 -17 49 -9 62 12 10 16 21 19
55 17 37 -3 42 -6 45 -29 3 -29 -12 -46 -48 -51 -16 -2 -26 -10 -28 -24 -2
-17 4 -23 29 -28 62 -12 79 -52 34 -82 -30 -20 -81 -11 -95 17 -6 11 -21 19
-35 19 -35 0 -32 -32 6 -64 25 -22 41 -26 91 -26 53 0 63 3 89 29 37 37 38 79
4 111 -21 20 -23 25 -11 32 20 11 30 71 17 97 -23 42 -102 63 -157 41z"/>
<path d="M3784 1775 c-11 -27 7 -35 82 -35 41 0 74 -4 74 -9 0 -5 -25 -61 -55
-126 -30 -64 -55 -121 -55 -126 0 -5 11 -9 25 -9 23 0 33 14 90 133 36 72 65
144 65 160 l0 27 -110 0 c-88 0 -112 -3 -116 -15z"/>
<path d="M1461 5741 c-13 -10 -22 -23 -20 -29 2 -6 50 -60 106 -120 56 -60
105 -121 108 -135 9 -35 -17 -81 -67 -117 -67 -49 -84 -43 -186 63 -49 50
-101 106 -115 122 l-26 30 -27 -27 -27 -27 70 -78 c39 -43 96 -102 126 -130
49 -46 61 -53 97 -53 79 0 168 60 211 142 41 79 20 128 -116 272 -55 58 -102
106 -105 106 -3 0 -16 -9 -29 -19z"/>
<path d="M5400 5591 c-77 -25 -139 -81 -160 -146 -7 -21 -10 -63 -8 -95 8
-106 85 -186 190 -197 70 -7 119 9 171 56 120 108 97 289 -45 362 -44 23 -112
32 -148 20z m138 -91 c44 -27 66 -80 57 -139 -10 -64 -72 -126 -137 -136 -88
-13 -158 45 -158 133 0 24 6 55 14 70 42 82 151 117 224 72z"/>
<path d="M5710 5198 c-58 -39 -132 -91 -164 -115 -33 -23 -64 -44 -70 -46 -14
-5 9 -56 29 -63 8 -4 44 15 85 45 39 29 75 49 81 46 5 -4 32 -40 59 -81 28
-41 54 -74 59 -74 4 0 16 9 26 20 18 20 18 22 -33 95 -29 41 -52 79 -52 84 0
8 73 61 85 61 2 0 30 -36 61 -80 30 -44 59 -82 64 -85 4 -3 18 3 31 14 l23 18
-80 113 c-44 63 -84 115 -90 117 -5 1 -56 -30 -114 -69z"/>
<path d="M956 5185 c-9 -13 -16 -28 -16 -33 0 -5 56 -45 126 -88 l125 -79 -63
-7 c-35 -3 -122 -12 -193 -18 -130 -12 -131 -12 -148 -42 -9 -16 -15 -34 -12
-38 6 -10 333 -216 356 -225 9 -3 21 6 32 24 l18 30 -63 40 c-35 22 -94 60
-132 84 l-70 45 45 6 c24 3 112 11 194 17 135 9 152 13 167 32 10 12 17 29 15
37 -1 7 -72 58 -157 112 -219 139 -205 132 -224 103z"/>
<path d="M685 4699 c-9 -17 -15 -32 -13 -34 11 -12 374 -175 388 -175 13 0 40
36 40 54 0 4 -83 45 -180 89 -180 82 -213 97 -216 97 -2 0 -11 -14 -19 -31z"/>
<path d="M6015 4651 c-86 -23 -152 -67 -181 -123 -8 -15 -14 -55 -14 -88 0
-116 80 -230 162 -230 45 0 51 8 35 49 -9 24 -17 31 -37 31 -73 0 -120 149
-69 214 26 33 81 61 136 71 64 10 110 -16 139 -79 28 -60 29 -71 9 -110 -18
-35 -19 -47 -2 -70 16 -22 43 -12 62 25 45 85 -16 243 -111 292 -39 20 -92 27
-129 18z"/>
<path d="M580 4474 c-16 -41 -12 -71 14 -91 59 -45 246 -216 246 -224 0 -5 -9
-9 -19 -9 -11 0 -77 -12 -148 -26 -70 -15 -142 -29 -160 -31 -39 -6 -49 -17
-58 -64 l-7 -36 199 -56 c109 -32 206 -57 215 -57 18 0 36 57 22 70 -5 4 -29
12 -54 18 -61 14 -221 60 -226 65 -2 2 69 16 158 32 108 18 167 33 176 43 29
37 15 59 -112 169 -69 59 -124 109 -122 110 1 1 67 -16 146 -38 149 -41 159
-41 160 4 0 9 0 20 1 24 0 7 -53 26 -116 42 -22 5 -98 25 -168 45 -70 20 -130
36 -133 36 -2 0 -9 -12 -14 -26z"/>
<path d="M6288 4225 c-3 -3 -38 -12 -79 -19 -73 -14 -192 -39 -259 -54 -32 -8
-35 -11 -32 -42 1 -19 4 -35 6 -37 1 -2 47 6 101 17 54 11 99 19 101 18 3 -4
44 -206 44 -218 0 -4 -24 -11 -53 -14 -29 -4 -73 -13 -98 -20 -40 -12 -44 -16
-41 -42 2 -16 6 -32 10 -35 6 -6 138 19 360 67 73 16 73 16 70 48 -3 29 -5 31
-43 30 -22 0 -61 -5 -88 -11 -44 -10 -48 -9 -52 11 -25 104 -42 197 -37 200 6
3 66 17 140 32 22 4 28 26 16 58 -6 15 -54 23 -66 11z"/>
<path d="M426 3840 c-3 -18 -4 -36 -1 -38 3 -3 62 -9 131 -14 69 -5 134 -12
144 -16 15 -6 -15 -29 -138 -108 -150 -96 -157 -102 -160 -136 -3 -34 -2 -36
35 -41 21 -4 101 -11 178 -17 77 -5 159 -12 183 -15 l42 -5 0 40 c0 37 -2 40
-27 41 -16 0 -86 6 -157 12 l-129 12 169 105 c158 98 169 107 172 138 2 20 -2
34 -10 37 -14 5 -206 23 -344 32 l-81 5 -7 -32z"/>
<path d="M6275 3679 c-38 -5 -117 -12 -175 -16 l-105 -8 2 -33 c0 -18 3 -35 5
-37 2 -2 60 0 128 6 69 5 167 12 218 15 l93 7 -3 36 c-3 35 -4 36 -48 37 -25
1 -76 -2 -115 -7z"/>
<path d="M6017 3473 c-3 -4 -7 -21 -8 -38 -4 -30 -3 -30 56 -37 33 -4 104 -11
158 -15 l97 -8 -152 -99 c-84 -55 -159 -106 -165 -115 -19 -22 -16 -69 5 -75
13 -4 327 -20 402 -21 16 0 33 62 19 71 -7 4 -165 17 -298 24 -2 0 69 48 158
107 161 106 161 106 161 144 l0 37 -72 6 c-40 3 -122 8 -183 11 -60 3 -124 8
-141 11 -18 3 -34 2 -37 -3z"/>
<path d="M787 3404 c-3 -4 -3 -55 0 -115 l6 -109 -65 0 -66 0 -8 98 -9 97 -30
-3 c-16 -2 -31 -5 -33 -7 -2 -2 1 -45 6 -96 5 -52 9 -95 8 -95 -1 -1 -26 -5
-57 -8 l-56 -7 -9 108 c-9 103 -10 108 -33 111 -41 6 -44 -7 -30 -158 l13
-143 96 7 c52 4 150 11 218 16 68 4 125 10 126 12 4 5 -13 272 -19 286 -5 12
-47 17 -58 6z"/>
<path d="M815 3055 c-16 -8 -52 -24 -80 -36 -27 -12 -57 -28 -66 -35 -14 -12
-21 -12 -53 1 -83 35 -161 -23 -153 -115 5 -53 34 -198 43 -212 4 -6 24 -8 48
-4 77 12 371 78 379 85 4 4 4 22 1 40 -7 32 -7 32 -53 26 -25 -4 -68 -12 -96
-20 -27 -7 -53 -10 -57 -6 -4 4 -12 35 -16 69 -10 75 -4 83 101 122 69 25 78
38 61 84 -7 19 -19 19 -59 1z m-201 -153 c20 -23 50 -132 39 -143 -4 -4 -29
-10 -54 -14 -53 -8 -55 -5 -65 81 -6 44 -3 58 11 74 23 25 47 25 69 2z"/>
<path d="M5974 3013 c-7 -38 1 -51 67 -97 21 -15 22 -19 12 -63 -7 -27 -17
-72 -23 -100 -11 -51 -14 -53 -53 -63 -87 -21 -91 -24 -98 -60 -4 -19 -6 -37
-4 -39 4 -3 72 11 220 44 33 7 104 23 158 36 54 12 100 27 103 33 17 46 11 53
-176 200 -102 80 -188 146 -192 146 -4 0 -10 -17 -14 -37z m250 -275 c-60 -10
-87 -15 -116 -23 -26 -7 -27 -6 -18 27 5 18 14 52 20 75 l11 42 71 -57 71 -57
-39 -7z"/>
<path d="M1547 1586 c-36 -61 -41 -96 -12 -96 7 0 25 16 39 35 31 40 33 41 66
15 l25 -19 -29 -30 c-23 -24 -35 -29 -54 -24 -23 5 -24 4 -19 -18 6 -21 -6
-36 -83 -110 -85 -82 -118 -129 -104 -151 12 -19 54 2 96 48 23 25 68 66 100
90 l58 44 37 -20 c21 -11 44 -20 51 -20 7 0 30 -11 50 -25 20 -14 42 -25 49
-25 19 0 55 78 47 103 -3 12 -29 45 -56 73 l-50 51 27 27 c29 29 30 63 2 80
-14 9 -22 5 -43 -22 -27 -34 -32 -35 -96 -10 -15 6 -31 22 -37 39 -5 16 -14
29 -18 29 -4 0 -25 -29 -46 -64z m216 -142 c42 -36 30 -58 -29 -51 -62 7 -74
20 -44 52 29 31 38 31 73 -1z"/>
<path d="M5113 1573 c-50 -35 -52 -38 -47 -73 4 -25 2 -40 -9 -48 -10 -9 -17
-10 -22 -2 -7 12 -42 14 -48 3 -3 -5 19 -44 49 -88 77 -115 80 -124 54 -175
-19 -37 -24 -41 -49 -35 -28 6 -62 -17 -43 -29 6 -3 20 -35 33 -71 19 -55 26
-65 46 -65 33 0 39 25 20 77 -16 43 -16 44 12 96 15 28 38 69 52 90 29 45 107
132 113 126 12 -11 -24 -86 -61 -131 -45 -51 -54 -78 -28 -78 18 0 55 35 55
53 0 6 9 1 20 -13 23 -30 18 -52 -21 -94 -31 -34 -55 -83 -45 -93 15 -15 55
19 77 66 12 28 26 51 29 51 4 0 12 -11 18 -25 11 -23 8 -27 -28 -51 -48 -32
-44 -47 7 -28 21 7 47 13 59 14 50 1 61 69 19 119 -25 29 -25 30 -6 40 11 6
26 11 33 11 7 0 19 4 27 9 12 8 12 12 2 25 -18 22 -43 20 -75 -5 -32 -25 -56
-19 -56 14 0 13 -5 28 -12 35 -16 16 6 62 31 62 10 0 29 8 41 18 l23 19 -23
21 c-15 13 -37 22 -56 22 -31 0 -36 5 -76 82 -24 45 -47 83 -53 85 -5 1 -34
-14 -62 -34z m47 -15 c-1 -17 -35 -58 -49 -58 -19 0 -12 31 12 51 26 22 37 24
37 7z m30 -63 c0 -8 -4 -15 -10 -15 -5 0 -10 7 -10 15 0 8 5 15 10 15 6 0 10
-7 10 -15z m-50 -22 c-1 -25 -14 -53 -26 -53 -7 0 -11 7 -9 15 3 8 7 22 10 30
4 15 25 21 25 8z m74 -39 c16 -41 -8 -61 -34 -29 -10 12 -10 18 0 30 16 19 26
19 34 -1z m-144 -26 c0 -16 -3 -19 -11 -11 -6 6 -8 16 -5 22 11 17 16 13 16
-11z m65 -58 c9 -43 -4 -58 -26 -29 -24 32 -24 59 0 59 13 0 21 -9 26 -30z"/>
<path d="M4943 1373 c-22 -8 -15 -20 38 -70 88 -82 135 -56 50 27 -50 48 -62
54 -88 43z"/>
<path d="M2224 1165 c-18 -14 -18 -15 11 -14 17 1 65 -4 108 -11 70 -11 80
-15 89 -39 5 -14 7 -43 4 -63 -7 -43 -77 -227 -99 -258 -14 -21 -15 -21 -39 8
-30 36 -29 69 2 85 33 17 103 152 95 184 -5 23 -49 52 -61 41 -3 -4 1 -19 10
-35 14 -27 13 -31 -10 -61 -14 -18 -30 -32 -35 -32 -12 0 -12 42 0 73 5 13 6
39 2 58 -9 42 -37 52 -47 15 -5 -22 -12 -26 -40 -26 -34 0 -34 -1 -31 -36 2
-20 9 -39 16 -44 10 -5 9 -9 -3 -13 -27 -11 -19 -30 10 -23 21 6 25 4 22 -11
-2 -13 -14 -19 -42 -21 -32 -3 -38 -1 -33 12 7 19 -6 20 -35 5 -18 -10 -19 -8
-13 13 3 12 17 45 31 71 24 49 31 87 16 87 -18 0 -72 -70 -111 -144 -37 -72
-50 -123 -35 -138 12 -13 43 6 54 32 11 27 13 27 91 26 43 -1 79 -4 79 -7 0
-4 -10 -14 -22 -22 l-23 -16 24 -7 c22 -7 23 -8 6 -20 -13 -9 -23 -10 -41 -2
-13 6 -21 15 -18 19 9 15 -43 10 -56 -5 -6 -8 -10 -25 -8 -38 2 -19 10 -23 38
-24 19 -1 58 -5 87 -9 46 -7 53 -11 63 -39 6 -17 16 -39 21 -48 5 -10 9 -25 9
-33 0 -23 34 -18 59 9 12 13 28 43 36 67 7 24 21 62 31 84 9 22 27 81 40 130
44 169 30 200 -99 221 -106 17 -129 17 -153 -1z"/>
<path d="M4372 1082 c-9 -7 -7 -27 10 -94 l22 -86 -24 -22 c-14 -11 -37 -26
-52 -31 -38 -15 -38 -49 0 -49 15 0 38 7 51 16 19 14 25 14 32 3 12 -17 1
-131 -17 -181 -16 -45 -6 -48 34 -10 37 33 56 115 47 196 -8 64 2 71 37 27 13
-16 62 -55 111 -86 85 -57 88 -58 126 -47 46 14 72 39 52 51 -6 4 -30 8 -52 9
-42 2 -168 61 -223 105 l-28 23 38 36 c20 20 50 42 66 49 39 16 33 43 -10 47
-27 3 -40 -4 -79 -42 -25 -25 -50 -43 -54 -40 -4 2 -11 29 -15 60 -5 46 -10
57 -31 65 -29 11 -25 11 -41 1z"/>
<path d="M3775 946 c-48 -17 -105 -54 -105 -67 0 -7 7 -8 18 -4 53 22 67 11
42 -36 -12 -21 -59 -26 -76 -9 -7 7 -20 7 -34 2 -23 -8 -23 -11 -25 -163 -3
-191 -1 -199 36 -199 32 0 49 23 49 68 0 22 10 39 37 62 l37 33 19 -44 c36
-86 97 -121 157 -89 28 15 59 75 66 130 8 61 -8 67 -25 10 -6 -22 -22 -52 -35
-67 -23 -26 -24 -26 -49 -10 -14 9 -32 36 -41 63 l-16 47 40 38 c22 22 40 43
40 49 0 15 -53 12 -77 -5 -18 -13 -22 -13 -33 0 -13 15 -49 21 -51 8 -7 -73
-13 -91 -39 -118 l-30 -30 0 88 0 87 49 0 c47 0 50 2 74 43 34 59 40 92 21
111 -8 9 -16 15 -17 15 -1 -1 -16 -6 -32 -13z"/>
<path d="M2948 893 c-54 -56 -248 -321 -248 -338 0 -42 72 4 122 78 23 34 59
84 81 111 38 49 97 155 97 176 0 19 -16 10 -52 -27z"/>
<path d="M2930 724 c0 -3 37 -43 81 -89 45 -46 91 -98 103 -114 15 -22 34 -33
69 -41 126 -27 146 14 32 65 -59 26 -166 99 -220 150 -33 31 -65 45 -65 29z"/>
</g>
</svg>
