<?xml version="1.0" standalone="no"?>
<!DOCTYPE svg PUBLIC "-//W3C//DTD SVG 20010904//EN"
 "http://www.w3.org/TR/2001/REC-SVG-20010904/DTD/svg10.dtd">
<svg version="1.0" xmlns="http://www.w3.org/2000/svg"
 width="1000.000000pt" height="1000.000000pt" viewBox="0 0 1000.000000 1000.000000"
 preserveAspectRatio="xMidYMid meet">

<g transform="translate(0.000000,1000.000000) scale(0.100000,-0.100000)"
fill="#000000" stroke="none">
<path d="M4574 9470 c-45 -4 -86 -10 -92 -14 -6 -4 -55 -9 -109 -13 -66 -3
-103 -10 -113 -20 -18 -17 11 -14 195 18 60 10 141 19 180 20 38 0 79 4 90 9
24 11 -31 11 -151 0z"/>
<path d="M4773 9473 c9 -2 25 -2 35 0 9 3 1 5 -18 5 -19 0 -27 -2 -17 -5z"/>
<path d="M5235 9470 c46 -12 103 -12 85 0 -8 5 -37 9 -65 9 -44 -1 -46 -2 -20
-9z"/>
<path d="M5415 9459 c38 -6 63 -5 69 1 7 7 -14 10 -59 9 l-70 -1 60 -9z"/>
<path d="M5665 9425 c50 -7 106 -18 125 -23 55 -16 129 -22 135 -12 3 4 -21
11 -52 15 -32 3 -83 12 -114 20 -30 8 -84 15 -120 14 l-64 -1 90 -13z"/>
<path d="M4070 9390 c-30 -11 -70 -20 -90 -20 -19 -1 -46 -8 -60 -16 -25 -15
-25 -15 10 -9 19 4 53 9 75 12 22 3 45 9 51 14 6 5 37 11 70 15 77 9 105 23
44 23 -25 0 -70 -9 -100 -19z"/>
<path d="M5965 9372 c6 -6 35 -14 65 -17 41 -5 51 -3 38 4 -24 16 -116 27
-103 13z"/>
<path d="M3840 9333 c-29 -5 -52 -23 -29 -23 7 1 28 7 44 15 31 14 28 15 -15
8z"/>
<path d="M6150 9326 c40 -17 85 -21 60 -7 -8 5 -33 12 -55 15 l-40 6 35 -14z"/>
<path d="M3630 9274 c-47 -19 -88 -34 -92 -34 -4 0 -19 -5 -35 -12 -33 -13
-39 -15 -56 -17 -7 0 -22 -8 -33 -17 -18 -14 -17 -15 20 -10 22 3 42 10 46 15
3 6 24 13 45 17 22 3 48 12 59 20 11 8 30 14 41 14 11 1 38 9 60 20 22 11 48
19 58 20 10 0 15 5 12 10 -10 16 -34 11 -125 -26z"/>
<path d="M6260 9299 c0 -5 6 -9 14 -9 8 0 22 -3 32 -7 11 -4 15 -3 11 4 -8 13
-57 23 -57 12z"/>
<path d="M4749 9269 c-9 -5 -3 -485 6 -499 2 -4 62 -7 132 -6 118 1 132 3 185
29 96 47 138 122 138 244 0 66 -5 86 -28 128 -15 28 -45 62 -70 80 l-44 30
-155 0 c-85 0 -159 -3 -164 -6z m280 -70 c66 -48 88 -200 43 -289 -33 -64 -75
-90 -143 -90 -30 0 -60 5 -67 12 -8 8 -12 66 -12 195 0 210 -2 207 91 199 39
-3 67 -11 88 -27z"/>
<path d="M6336 9270 c5 -5 25 -12 44 -15 l35 -5 -35 14 c-42 18 -58 20 -44 6z"/>
<path d="M5476 9248 c-11 -6 -16 -23 -16 -60 0 -29 -10 -126 -22 -217 -31
-241 -33 -225 27 -229 28 -1 85 -9 127 -18 43 -8 82 -12 88 -9 5 3 10 17 10
30 0 27 -8 30 -99 39 -30 3 -58 9 -62 13 -11 11 10 145 25 161 10 10 23 10 57
3 65 -15 96 -13 103 6 11 27 -15 42 -82 49 -34 4 -67 12 -72 19 -7 9 -8 33 -1
75 6 35 12 64 13 65 10 9 40 8 91 -4 52 -13 59 -13 75 2 13 14 14 21 6 35 -8
13 -32 19 -95 24 -46 4 -100 12 -120 16 -22 6 -43 5 -53 0z"/>
<path d="M6455 9230 c3 -5 20 -10 36 -10 18 0 28 4 24 10 -3 6 -20 10 -36 10
-18 0 -28 -4 -24 -10z"/>
<path d="M4233 9198 c-6 -7 -14 -31 -18 -53 -4 -22 -13 -62 -20 -90 -7 -27
-18 -77 -25 -110 -6 -33 -23 -101 -37 -152 -26 -92 -26 -123 1 -123 27 0 44
28 55 91 6 35 14 66 18 70 5 5 41 13 82 20 84 14 79 17 134 -75 l27 -47 48 7
c26 3 50 8 55 11 15 9 6 35 -25 73 -17 22 -79 117 -137 212 -107 173 -131 199
-158 166z m51 -184 c6 -10 19 -32 29 -47 25 -37 17 -54 -33 -67 -56 -15 -62
-8 -54 58 9 81 33 103 58 56z"/>
<path d="M6540 9195 c13 -16 60 -21 60 -6 0 11 -25 21 -52 21 -17 0 -18 -3 -8
-15z"/>
<path d="M3315 9161 c-3 -5 -2 -12 3 -15 12 -7 52 4 52 15 0 12 -47 12 -55 0z"/>
<path d="M6640 9160 c0 -5 17 -10 38 -10 27 0 33 3 22 10 -20 13 -60 13 -60 0z"/>
<path d="M3240 9125 c-10 -12 -9 -15 7 -15 10 0 28 7 39 15 18 14 18 14 -7 15
-15 0 -32 -7 -39 -15z"/>
<path d="M6720 9131 c0 -9 41 -23 48 -16 2 2 1 8 -3 14 -8 13 -45 15 -45 2z"/>
<path d="M3165 9091 c-3 -5 -2 -12 2 -14 9 -5 53 10 53 18 0 9 -49 5 -55 -4z"/>
<path d="M6805 9092 c14 -15 40 -19 43 -7 1 6 -10 11 -25 13 -19 2 -25 0 -18
-6z"/>
<path d="M3070 9049 c-19 -10 -41 -19 -48 -19 -7 0 -15 -7 -18 -15 -4 -8 -17
-15 -29 -15 -13 0 -27 -5 -30 -10 -4 -6 -21 -17 -38 -24 l-32 -14 33 -1 c17
-1 32 4 32 9 0 6 6 10 13 10 22 1 188 86 181 93 -11 11 -26 8 -64 -14z"/>
<path d="M6870 9062 c0 -9 69 -41 103 -48 9 -2 17 1 17 6 0 6 -10 10 -23 10
-12 0 -28 9 -35 20 -12 19 -62 29 -62 12z"/>
<path d="M3640 9053 c-40 -7 -122 -33 -166 -54 -22 -10 -48 -19 -56 -19 -28 0
-48 -12 -48 -27 0 -9 15 -59 34 -112 45 -127 106 -320 106 -336 0 -21 29 -26
60 -10 16 8 37 15 47 15 29 0 130 38 173 65 76 48 110 114 110 215 0 158 -127
287 -260 263z m77 -118 c51 -55 88 -159 78 -215 -15 -80 -76 -138 -150 -143
l-40 -2 -59 178 c-66 199 -66 195 10 223 66 24 113 13 161 -41z"/>
<path d="M6355 9038 c-18 -56 -130 -350 -146 -384 -10 -24 -19 -49 -19 -56 0
-16 166 -93 231 -107 151 -34 296 79 316 247 12 101 -40 188 -139 231 -104 46
-119 51 -136 51 -10 0 -27 7 -38 15 -23 18 -63 19 -69 3z m185 -103 c95 -48
114 -145 52 -265 -39 -75 -99 -120 -158 -120 -48 0 -124 32 -124 53 0 6 30 90
67 184 75 196 73 194 163 148z"/>
<path d="M7015 8990 c3 -5 11 -10 17 -10 5 0 21 -9 35 -20 14 -11 34 -20 43
-20 10 0 20 -7 24 -15 5 -15 46 -22 46 -7 0 4 -12 13 -27 20 -16 7 -46 23 -68
37 -40 25 -82 34 -70 15z"/>
<path d="M2831 8921 c-10 -10 -28 -22 -40 -26 -12 -3 -21 -11 -21 -16 0 -16
28 -10 47 10 10 10 28 22 41 25 12 4 20 12 17 17 -9 14 -23 11 -44 -10z"/>
<path d="M7205 8890 c-3 -5 3 -10 14 -10 12 0 21 5 21 10 0 6 -6 10 -14 10 -8
0 -18 -4 -21 -10z"/>
<path d="M7260 8855 c0 -8 9 -15 19 -15 11 0 27 -7 35 -16 9 -8 21 -14 27 -12
11 4 -59 58 -74 58 -4 0 -7 -7 -7 -15z"/>
<path d="M2710 8850 c0 -5 9 -10 19 -10 11 0 23 5 26 10 4 6 -5 10 -19 10 -14
0 -26 -4 -26 -10z"/>
<path d="M2655 8819 c-4 -5 -18 -14 -31 -19 -13 -5 -24 -14 -24 -20 0 -19 35
-9 70 20 30 27 32 30 13 30 -12 0 -25 -5 -28 -11z"/>
<path d="M3028 8784 c-21 -13 -38 -27 -38 -30 0 -3 16 -32 35 -65 41 -71 175
-344 175 -358 0 -18 25 -18 63 1 21 10 40 25 43 33 3 8 -10 40 -28 72 -19 32
-69 129 -111 216 -43 86 -83 157 -90 156 -6 0 -29 -11 -49 -25z"/>
<path d="M7375 8791 c-7 -12 12 -24 25 -16 11 7 4 25 -10 25 -5 0 -11 -4 -15
-9z"/>
<path d="M2550 8760 c-18 -11 -3 -29 20 -23 11 3 20 9 20 13 0 12 -26 19 -40
10z"/>
<path d="M7430 8751 c0 -5 7 -12 16 -15 22 -9 24 -8 24 9 0 8 -9 15 -20 15
-11 0 -20 -4 -20 -9z"/>
<path d="M7016 8717 c-18 -45 -172 -314 -202 -354 -13 -17 -24 -36 -24 -42 0
-6 24 -22 53 -36 28 -14 80 -44 113 -66 65 -42 94 -43 94 -5 0 17 -12 28 -50
46 -27 13 -58 32 -67 42 -16 18 -16 21 0 46 10 15 28 46 39 70 12 23 28 42 36
42 8 0 36 -16 63 -36 53 -39 82 -41 87 -7 3 18 -8 28 -53 54 -31 18 -59 38
-62 46 -6 15 19 68 53 110 l21 27 67 -44 c61 -39 69 -42 83 -27 9 8 13 22 10
29 -3 8 -46 38 -96 67 -50 29 -93 56 -96 62 -4 5 -17 9 -30 9 -19 0 -28 -9
-39 -33z"/>
<path d="M2490 8710 c-6 -11 -17 -20 -26 -20 -8 0 -17 -7 -20 -15 -4 -8 -15
-15 -25 -15 -10 0 -19 -4 -19 -10 0 -20 39 -9 69 19 18 17 41 33 53 37 16 5
18 8 7 15 -21 13 -27 11 -39 -11z"/>
<path d="M7485 8710 c3 -5 10 -10 16 -10 5 0 9 5 9 10 0 6 -7 10 -16 10 -8 0
-12 -4 -9 -10z"/>
<path d="M7520 8690 c0 -5 4 -10 10 -10 5 0 21 -12 34 -27 18 -19 29 -24 36
-17 8 8 -1 19 -28 37 -41 29 -52 33 -52 17z"/>
<path d="M4790 8619 c-31 -6 -30 -6 18 -8 28 0 52 1 52 3 0 8 -37 11 -70 5z"/>
<path d="M4980 8620 c-17 -6 -2 -8 53 -9 45 -1 77 3 77 9 0 12 -94 12 -130 0z"/>
<path d="M2365 8610 c3 -5 8 -10 11 -10 2 0 4 5 4 10 0 6 -5 10 -11 10 -5 0
-7 -4 -4 -10z"/>
<path d="M2695 8599 c-54 -29 -74 -47 -97 -93 -24 -47 -18 -93 18 -149 37 -56
76 -69 184 -61 86 7 89 6 114 -19 35 -35 33 -62 -8 -103 -34 -34 -87 -47 -101
-24 -10 15 -45 12 -45 -5 0 -25 22 -64 40 -70 49 -16 181 79 196 141 10 39 -1
109 -22 136 -42 56 -61 63 -173 60 -95 -3 -106 -1 -127 19 -31 29 -30 64 2 94
28 26 37 28 92 25 25 -1 32 2 32 17 -1 26 -24 53 -46 53 -11 0 -37 -9 -59 -21z"/>
<path d="M4650 8610 c-12 -7 -8 -10 15 -10 17 0 37 5 45 10 12 7 8 10 -15 10
-16 0 -37 -5 -45 -10z"/>
<path d="M5185 8610 c86 -11 225 -11 200 0 -11 5 -74 8 -140 8 -102 -1 -111
-2 -60 -8z"/>
<path d="M7620 8610 c0 -5 6 -10 13 -10 6 0 23 -12 36 -25 26 -29 41 -32 41
-10 0 9 -11 20 -24 25 -13 5 -27 14 -31 19 -8 14 -35 14 -35 1z"/>
<path d="M2293 8571 c-18 -15 -33 -31 -33 -34 0 -13 31 -7 36 8 3 8 14 17 25
20 10 4 19 13 19 21 0 20 -11 17 -47 -15z"/>
<path d="M5463 8593 c4 -6 37 -13 74 -17 37 -3 79 -9 92 -13 15 -4 22 -2 18 4
-4 6 -28 13 -54 16 -27 3 -68 9 -92 13 -29 5 -42 4 -38 -3z"/>
<path d="M4400 8580 c-19 -6 -9 -8 35 -8 33 0 69 3 80 8 26 11 -80 11 -115 0z"/>
<path d="M4236 8551 c-17 -7 -17 -8 -3 -14 21 -8 88 3 81 14 -6 11 -51 11 -78
0z"/>
<path d="M5700 8551 c0 -11 49 -21 69 -13 12 5 10 8 -9 13 -36 10 -60 10 -60
0z"/>
<path d="M7720 8540 c0 -5 7 -10 16 -10 8 0 12 5 9 10 -3 6 -10 10 -16 10 -5
0 -9 -4 -9 -10z"/>
<path d="M2225 8519 c-10 -15 1 -23 20 -15 9 3 13 10 10 16 -8 13 -22 13 -30
-1z"/>
<path d="M7756 8523 c-11 -11 -6 -21 14 -26 12 -3 20 0 20 8 0 14 -25 27 -34
18z"/>
<path d="M4118 8513 c6 -2 18 -2 25 0 6 3 1 5 -13 5 -14 0 -19 -2 -12 -5z"/>
<path d="M5860 8510 c37 -12 82 -12 75 0 -3 6 -27 10 -53 9 -38 -1 -42 -2 -22
-9z"/>
<path d="M2180 8476 c-43 -43 -68 -63 -92 -79 -16 -10 -28 -22 -28 -27 0 -23
32 -6 85 45 31 30 60 55 65 55 6 0 10 5 10 10 0 15 -23 12 -40 -4z"/>
<path d="M5980 8482 c0 -12 67 -28 77 -18 10 10 -2 16 -41 23 -23 3 -36 2 -36
-5z"/>
<path d="M7800 8480 c0 -5 7 -10 15 -10 8 0 15 -7 15 -15 0 -8 10 -20 22 -26
12 -6 43 -32 69 -56 27 -25 54 -43 61 -40 8 4 5 8 -9 12 -13 4 -23 12 -23 19
0 14 -44 56 -59 56 -6 0 -11 6 -11 13 0 6 -16 22 -35 35 -39 25 -45 26 -45 12z"/>
<path d="M3945 8470 c-4 -6 6 -10 24 -10 16 0 33 5 36 10 4 6 -6 10 -24 10
-16 0 -33 -4 -36 -10z"/>
<path d="M3865 8440 c-10 -17 42 -16 60 1 5 5 -3 9 -22 9 -18 0 -35 -4 -38
-10z"/>
<path d="M6090 8445 c0 -10 54 -26 69 -20 13 5 14 7 1 15 -16 10 -70 14 -70 5z"/>
<path d="M3765 8410 c-4 -6 7 -10 24 -10 17 0 31 5 31 10 0 6 -11 10 -24 10
-14 0 -28 -4 -31 -10z"/>
<path d="M6195 8410 c3 -5 12 -10 18 -10 7 0 25 -7 40 -15 15 -8 45 -17 65
-21 20 -4 42 -13 47 -20 14 -18 69 -31 63 -14 -4 12 -44 29 -118 52 -19 6 -44
17 -55 24 -22 16 -69 19 -60 4z"/>
<path d="M3665 8370 c-22 -11 -47 -19 -56 -20 -9 0 -24 -9 -34 -20 -10 -11
-24 -20 -31 -20 -7 0 -16 -4 -19 -10 -7 -11 125 37 140 51 5 5 17 9 26 9 10 0
20 4 24 9 11 19 -11 19 -50 1z"/>
<path d="M2007 8328 c-11 -11 -15 -24 -10 -29 5 -5 21 4 37 21 23 25 25 30 9
29 -10 0 -26 -10 -36 -21z"/>
<path d="M7995 8320 c-7 -11 38 -60 56 -60 14 0 11 6 -20 40 -19 21 -31 28
-36 20z"/>
<path d="M6464 8309 c-8 -13 25 -24 37 -12 7 7 3 12 -10 16 -12 3 -24 1 -27
-4z"/>
<path d="M3453 8283 c-7 -3 -13 -9 -13 -14 0 -12 37 -12 44 0 7 11 -14 20 -31
14z"/>
<path d="M6525 8281 c-6 -11 42 -27 52 -17 8 8 3 12 -24 20 -12 4 -24 2 -28
-3z"/>
<path d="M1937 8257 c-10 -13 -13 -23 -7 -25 14 -5 40 17 40 34 0 20 -12 17
-33 -9z"/>
<path d="M2296 8273 c-42 -11 -211 -146 -211 -169 0 -6 16 -29 35 -51 69 -74
250 -295 250 -303 0 -5 9 -14 20 -20 16 -8 26 -5 55 21 19 17 35 36 35 42 0 6
-29 41 -65 78 -36 37 -65 72 -65 77 0 22 21 23 63 4 23 -11 72 -32 108 -47
l66 -27 46 33 c54 37 59 56 20 65 -82 18 -226 69 -230 82 -3 8 1 27 11 42 9
16 16 39 16 52 0 33 -35 85 -72 108 -33 20 -46 22 -82 13z m28 -123 c40 -45
47 -89 20 -128 -23 -33 -38 -27 -80 28 -20 27 -43 51 -51 54 -21 8 -15 52 10
69 36 26 62 20 101 -23z"/>
<path d="M3370 8240 c0 -5 11 -10 25 -10 14 0 25 5 25 10 0 6 -11 10 -25 10
-14 0 -25 -4 -25 -10z"/>
<path d="M6600 8240 c0 -5 6 -10 13 -10 8 0 24 -9 37 -20 23 -20 60 -27 60
-12 0 7 -88 52 -102 52 -5 0 -8 -4 -8 -10z"/>
<path d="M8070 8240 c0 -5 5 -10 10 -10 6 0 10 5 10 10 0 6 -4 10 -10 10 -5 0
-10 -4 -10 -10z"/>
<path d="M1875 8210 c-3 -5 -4 -10 -1 -10 2 0 11 -3 20 -6 11 -4 16 -1 16 10
0 18 -25 22 -35 6z"/>
<path d="M3303 8201 c-9 -12 -25 -21 -35 -21 -22 0 -32 -16 -14 -23 8 -3 26 3
39 14 14 10 33 19 42 19 9 0 15 5 13 12 -7 21 -26 20 -45 -1z"/>
<path d="M7775 8194 c-16 -17 -107 -91 -273 -223 -61 -48 -82 -71 -80 -86 6
-42 38 -27 144 69 107 97 142 116 131 74 -11 -43 -68 -213 -83 -246 -16 -38
-18 -68 -4 -77 5 -3 28 4 51 16 40 20 112 47 186 70 18 5 35 14 38 19 6 10 65
14 65 5 0 -7 -98 -131 -142 -180 -21 -23 -38 -50 -38 -60 0 -21 50 -75 70 -75
8 0 43 42 77 93 34 50 97 141 142 200 44 60 78 114 75 122 -13 34 -40 27 -292
-71 -73 -28 -102 -30 -102 -8 0 8 23 84 50 167 28 84 50 163 48 177 -4 31 -38
39 -63 14z"/>
<path d="M8100 8200 c0 -5 9 -10 21 -10 11 0 17 5 14 10 -3 6 -13 10 -21 10
-8 0 -14 -4 -14 -10z"/>
<path d="M6717 8184 c-12 -12 4 -24 31 -24 26 1 26 1 8 15 -22 17 -30 18 -39
9z"/>
<path d="M1850 8172 c-18 -6 -30 -22 -30 -39 0 -19 20 -16 27 5 4 9 11 20 17
24 14 9 5 16 -14 10z"/>
<path d="M8140 8172 c0 -14 39 -46 47 -39 3 4 -2 16 -12 27 -19 21 -35 26 -35
12z"/>
<path d="M3195 8142 c-11 -11 -4 -22 15 -22 11 0 20 6 20 13 0 13 -25 19 -35
9z"/>
<path d="M6782 8138 c5 -15 37 -18 41 -3 1 6 -9 12 -22 13 -16 3 -22 -1 -19
-10z"/>
<path d="M3134 8105 c-18 -14 -18 -14 9 -15 15 0 27 4 27 9 0 18 -17 20 -36 6z"/>
<path d="M6847 8113 c-14 -13 -6 -23 18 -23 28 0 34 15 9 24 -19 7 -19 7 -27
-1z"/>
<path d="M8196 8111 c-4 -5 3 -15 15 -21 18 -10 20 -9 17 6 -4 20 -23 30 -32
15z"/>
<path d="M4822 8103 c-51 -7 -63 -35 -56 -127 6 -64 12 -83 36 -113 41 -52 27
-62 -95 -64 -54 -1 -101 1 -105 5 -3 4 -1 15 6 24 33 48 41 74 43 146 1 65 -1
79 -17 91 -40 29 -321 32 -417 5 -52 -15 -61 -39 -48 -129 8 -58 16 -80 36
-101 45 -47 32 -64 -55 -71 -41 -4 -86 -8 -100 -9 -57 -5 -67 15 -28 58 18 19
24 40 29 105 6 79 0 113 -24 129 -42 27 -346 14 -426 -18 l-34 -14 6 -87 c6
-78 9 -90 39 -127 l33 -41 1 -184 1 -184 -30 -48 c-23 -39 -29 -56 -24 -84 4
-27 -1 -47 -24 -90 -31 -59 -35 -85 -18 -134 18 -51 2 -61 -91 -56 -60 3 -81
1 -90 -10 -9 -11 -11 -225 -7 -887 5 -1015 7 -1043 103 -1443 190 -797 674
-1315 1421 -1520 114 -31 122 -31 236 0 562 155 959 469 1220 965 140 265 236
606 284 1003 15 123 17 257 18 1017 l0 875 -44 0 c-38 0 -47 4 -70 34 -14 19
-45 55 -68 80 l-43 44 0 82 c0 73 -3 86 -28 123 l-28 42 2 189 1 189 27 28
c33 36 46 81 46 162 0 62 -1 63 -33 77 -86 36 -399 42 -433 8 -10 -10 -14 -39
-14 -100 0 -76 3 -88 25 -115 14 -16 25 -33 25 -38 0 -20 -27 -27 -75 -20 -27
5 -72 9 -98 9 -56 1 -73 23 -40 50 31 25 40 49 48 133 7 73 6 77 -16 92 -40
26 -163 39 -304 33 -122 -6 -131 -8 -151 -31 -19 -21 -21 -33 -17 -93 3 -41
13 -80 24 -99 36 -59 31 -62 -83 -61 -91 2 -103 4 -106 20 -2 11 6 29 18 42
24 26 39 83 40 156 0 79 -10 83 -218 85 -97 1 -192 0 -210 -3z m336 -59 l42
-6 -4 -47 c-2 -25 -4 -48 -5 -51 -1 -3 -84 -6 -185 -6 l-184 -1 -5 46 c-3 25
-1 51 3 56 5 6 35 11 67 13 32 2 60 5 62 7 5 5 152 -3 209 -11z m-568 -30 c5
-5 7 -32 4 -59 l-6 -50 -151 2 c-83 0 -161 -3 -173 -7 -31 -12 -42 5 -41 65 2
49 3 50 34 50 18 1 35 4 38 7 10 10 284 3 295 -8z m1189 1 c15 -8 14 -98 -1
-113 -6 -6 -18 -8 -27 -3 -9 5 -85 9 -170 9 -84 0 -154 2 -156 4 -2 2 -5 26
-6 53 l-4 50 40 6 c51 8 310 3 324 -6z m-1808 -14 c33 -1 38 -13 30 -71 l-6
-45 -105 3 c-58 2 -136 -2 -173 -8 -41 -7 -72 -9 -78 -3 -5 5 -10 31 -11 58
l-3 50 74 7 c41 4 77 10 80 13 3 3 41 4 86 1 44 -3 92 -5 106 -5z m2364 -9
l50 -8 -2 -49 c-2 -59 -23 -82 -57 -62 -13 8 -73 12 -166 13 l-145 1 -6 44
c-3 24 -4 49 -2 56 8 21 203 24 328 5z m-1219 -197 c18 -12 20 -22 18 -92 -1
-43 2 -107 7 -143 10 -81 -3 -103 -41 -68 -18 17 -39 23 -88 26 -58 4 -66 2
-92 -23 -47 -45 -51 -30 -45 138 4 116 9 155 20 163 21 16 195 15 221 -1z
m597 -24 c4 -4 8 -78 10 -164 3 -172 0 -182 -51 -134 -33 30 -142 30 -176 -2
-40 -38 -45 -18 -35 144 6 105 13 153 23 160 14 11 216 8 229 -4z m-1178 0
c10 -17 25 -305 16 -314 -5 -5 -23 1 -41 14 -44 33 -139 32 -175 -1 -45 -42
-50 -26 -49 137 1 83 4 155 8 162 9 14 232 16 241 2z m-574 -166 c10 -87 13
-154 8 -159 -5 -6 -24 -1 -48 12 -33 19 -48 21 -95 16 -35 -4 -62 -14 -72 -25
-9 -11 -24 -19 -33 -19 -14 0 -16 19 -15 148 0 81 2 152 2 159 2 13 53 19 162
19 l75 -1 16 -150z m848 146 c8 -5 11 -16 8 -24 -4 -12 -27 -16 -99 -19 -51
-2 -99 1 -106 6 -26 18 -4 31 64 37 113 9 118 9 133 0z m596 -16 c0 -18 -8
-20 -96 -23 -78 -2 -98 0 -109 13 -23 27 6 35 110 32 87 -3 95 -5 95 -22z
m895 10 c8 -5 11 -45 9 -128 -1 -67 2 -134 5 -148 5 -17 2 -29 -7 -38 -12 -9
-21 -6 -48 16 -28 24 -41 28 -91 27 -45 -1 -64 -6 -82 -23 -12 -11 -27 -21
-33 -21 -18 0 -24 31 -14 64 5 17 12 80 16 140 3 60 8 114 12 119 6 10 214 4
233 -8z m-2081 -24 c29 -19 3 -38 -61 -44 -34 -4 -80 -10 -100 -13 -34 -6 -38
-4 -38 15 0 27 6 29 100 40 41 5 77 9 80 10 3 0 11 -3 19 -8z m1775 -11 c5 -5
6 -16 2 -26 -5 -13 -14 -15 -38 -10 -17 3 -62 9 -100 13 -69 6 -85 14 -72 34
8 13 193 3 208 -11z m-606 -65 c9 -3 11 -29 6 -107 -6 -93 -9 -107 -36 -147
-22 -30 -31 -55 -31 -82 0 -41 -17 -65 -41 -56 -9 4 -15 27 -18 66 -3 50 -9
66 -32 90 -26 28 -28 35 -31 133 -1 56 1 105 6 108 9 6 156 1 177 -5z m-581
-93 c-4 -88 -7 -103 -33 -141 -16 -25 -31 -63 -34 -90 -4 -37 -9 -46 -24 -46
-14 0 -22 12 -31 46 -6 26 -23 60 -37 77 -22 26 -26 42 -31 132 -4 57 -4 107
-1 111 3 5 48 9 100 9 l94 0 -3 -98z m1172 62 c11 -3 12 -17 7 -62 -4 -31 -10
-77 -12 -101 -3 -28 -16 -60 -36 -88 -22 -30 -32 -56 -33 -83 -2 -84 -55 -75
-55 10 0 36 -7 56 -30 88 -28 40 -30 47 -30 140 0 54 3 101 6 104 6 6 160 -1
183 -8z m-1758 -6 c0 -7 0 -51 -1 -98 -1 -76 -4 -90 -31 -131 -22 -35 -29 -57
-29 -97 0 -28 -4 -53 -9 -56 -22 -14 -39 7 -44 55 -4 35 -15 61 -37 87 -19 23
-30 48 -30 67 0 17 -5 57 -11 89 -14 75 -6 84 79 89 37 2 77 4 90 5 12 1 22
-4 23 -10z m109 -238 c0 -5 -5 -10 -11 -10 -5 0 -7 5 -4 10 3 6 8 10 11 10 2
0 4 -4 4 -10z m519 -18 c15 -28 -1 -87 -24 -87 -16 0 -21 8 -23 38 -5 55 26
88 47 49z m357 -11 c14 -27 7 -60 -13 -68 -18 -7 -23 -1 -33 40 -12 56 22 76
46 28z m-587 -5 c7 -8 11 -30 9 -48 -2 -25 -8 -33 -23 -33 -15 0 -21 9 -26 40
-4 26 -3 43 5 47 16 11 22 10 35 -6z m808 2 c6 -7 7 -38 4 -68 -5 -46 -9 -55
-26 -55 -17 0 -20 8 -23 53 -4 67 20 103 45 70z m-1157 -42 c0 -31 -5 -46 -16
-50 -23 -9 -34 2 -34 34 0 41 10 60 31 60 16 0 19 -7 19 -44z m1521 13 c8 -33
-3 -52 -27 -47 -14 2 -20 13 -22 41 -3 35 -1 38 19 35 15 -2 25 -12 30 -29z
m-1745 -18 c3 -14 7 -34 9 -44 11 -57 -39 -55 -55 2 -13 48 -13 68 3 74 21 7
37 -4 43 -32z m1971 -4 c-18 -27 -50 -29 -55 -3 -6 27 25 48 50 35 18 -9 18
-13 5 -32z m353 -38 c0 -51 -12 -68 -35 -49 -19 16 -20 106 -2 113 23 8 37
-15 37 -64z m-2680 43 c0 -21 -18 -42 -37 -42 -13 0 -18 41 -6 53 14 14 43 7
43 -11z m311 -134 c106 -49 210 -132 195 -156 -2 -4 -51 -7 -108 -5 l-103 2
-30 35 c-36 42 -130 106 -156 106 -21 0 -41 -31 -31 -46 4 -6 22 -16 39 -23
37 -15 86 -58 79 -69 -5 -9 -255 -6 -264 3 -18 17 -28 81 -18 114 32 105 215
123 397 39z m1724 47 c39 -4 103 -20 146 -37 86 -33 212 -124 217 -154 3 -19
-2 -20 -97 -18 l-101 2 -57 52 c-92 85 -173 113 -173 61 0 -14 16 -29 53 -48
35 -19 53 -35 55 -50 4 -26 -8 -28 -92 -14 -31 5 -52 15 -59 27 -6 11 -32 42
-59 70 -26 28 -48 56 -48 62 0 20 99 64 130 57 8 -2 47 -6 85 -10z m-831 -24
c70 -25 134 -61 196 -110 84 -67 80 -75 -46 -76 l-99 0 -55 51 c-93 87 -171
116 -178 66 -3 -18 5 -26 40 -41 50 -21 78 -45 78 -67 0 -11 -12 -12 -62 -7
-61 6 -63 7 -135 80 -40 41 -73 78 -73 82 0 4 19 17 43 29 37 20 53 22 137 18
60 -3 117 -12 154 -25z m216 -391 c26 -16 2 -23 -47 -14 -56 11 -147 0 -180
-21 -12 -8 -30 -16 -40 -18 -10 -1 -29 -10 -43 -20 -13 -9 -30 -17 -36 -17 -7
0 -25 -6 -41 -14 -15 -8 -50 -24 -78 -36 -27 -12 -62 -28 -77 -36 -14 -8 -34
-14 -43 -14 -24 0 -13 24 13 28 11 2 26 10 32 18 7 8 22 14 34 14 11 0 35 9
51 20 17 11 40 20 51 20 12 0 27 6 33 14 7 8 27 18 44 22 18 3 41 13 52 20 11
8 29 14 40 14 12 0 25 4 31 9 19 19 177 28 204 11z m100 -40 c22 -11 46 -20
53 -20 8 0 20 -7 27 -15 7 -8 25 -15 41 -15 15 0 30 -4 33 -9 3 -5 32 -20 63
-35 32 -15 71 -33 86 -41 16 -8 34 -15 40 -15 7 0 29 -9 50 -20 20 -11 45 -20
56 -20 10 0 24 -7 31 -15 7 -8 19 -15 28 -15 8 0 33 -9 56 -19 23 -11 48 -22
56 -25 8 -3 22 -10 30 -15 29 -17 107 -51 118 -51 6 0 23 -6 39 -14 15 -8 44
-21 63 -29 19 -8 56 -24 81 -36 25 -12 51 -21 56 -21 6 0 16 -7 23 -15 7 -8
22 -15 34 -15 12 0 31 -7 42 -15 18 -14 17 -14 -12 -15 -17 0 -37 7 -44 15 -7
8 -21 15 -31 15 -11 0 -54 16 -96 36 -91 43 -155 72 -201 90 -18 7 -47 20 -65
27 -17 8 -57 25 -87 37 -30 13 -87 38 -126 56 -39 19 -75 34 -80 34 -8 0 -81
30 -219 91 -22 9 -74 33 -116 53 -42 20 -81 36 -87 36 -6 0 -14 5 -17 10 -10
17 34 11 75 -10z m-111 -36 c29 -8 85 -30 125 -48 39 -18 94 -42 121 -53 28
-12 120 -51 205 -87 148 -64 180 -78 253 -111 17 -8 75 -32 127 -54 52 -21
122 -51 155 -66 33 -15 110 -48 170 -73 106 -44 114 -46 215 -47 102 0 105 -1
108 -23 2 -13 -4 -34 -13 -48 -10 -16 -15 -41 -13 -72 3 -51 -12 -64 -46 -39
-18 13 -18 15 -1 44 29 49 17 59 -77 67 -56 5 -98 15 -131 32 -27 13 -55 24
-63 24 -8 0 -23 9 -34 20 -11 11 -26 17 -33 14 -8 -3 -20 2 -27 11 -7 8 -22
15 -35 15 -12 0 -30 9 -40 20 -10 11 -28 20 -40 20 -13 0 -28 7 -35 16 -8 8
-25 14 -39 12 -22 -3 -26 -9 -29 -41 -4 -43 13 -71 39 -64 10 3 25 -3 34 -13
9 -10 29 -21 43 -24 15 -4 41 -13 57 -21 109 -51 173 -77 218 -89 62 -16 107
-36 107 -47 0 -13 -41 -21 -78 -15 -92 16 -132 30 -138 49 -4 14 -13 18 -30
14 -17 -3 -29 2 -39 16 -9 13 -20 17 -31 13 -11 -4 -26 1 -40 15 -12 12 -29
19 -36 16 -7 -2 -25 7 -40 21 -30 28 -54 24 -68 -10 -8 -21 -9 -21 -9 8 -2 60
-54 87 -68 34 -8 -30 -18 -24 -19 12 -2 38 -29 61 -65 53 -20 -5 -30 -1 -43
20 -30 45 -76 27 -76 -31 0 -51 66 -87 88 -48 7 13 10 10 15 -14 8 -39 38 -57
68 -42 11 7 22 10 23 8 1 -2 10 -15 19 -31 15 -22 21 -26 37 -17 25 14 27 13
33 -10 4 -15 14 -20 40 -20 19 0 40 -7 48 -16 8 -10 23 -14 41 -12 15 3 28 1
28 -3 0 -39 -137 -33 -181 8 -24 22 -28 23 -43 8 -9 -9 -16 -21 -16 -26 0 -6
-4 -7 -10 -4 -5 3 -10 19 -10 35 0 23 -5 31 -24 36 -14 3 -30 3 -36 -1 -5 -3
-22 8 -36 25 -20 23 -34 30 -53 28 -39 -5 -41 -55 -4 -92 l27 -28 21 26 c12
15 24 23 28 20 11 -12 8 -51 -6 -62 -18 -16 -109 4 -129 28 -20 24 -31 25 -63
4 -25 -16 -25 -16 -31 15 -5 21 -14 33 -29 37 -44 11 -60 1 -65 -40 -6 -50
-31 -67 -59 -42 -14 13 -28 16 -50 11 -26 -5 -36 -2 -61 22 -37 34 -37 41 -4
53 22 9 29 6 58 -25 39 -41 58 -44 80 -10 22 34 20 47 -12 78 -32 31 -37 32
-74 13 -24 -13 -28 -13 -28 -1 0 8 -12 26 -27 40 -27 25 -28 26 -9 40 28 21
41 19 60 -10 10 -14 28 -31 41 -37 20 -9 29 -8 45 7 26 23 25 40 -1 77 -20 28
-26 30 -65 25 -24 -2 -44 -1 -44 4 0 5 -11 19 -25 31 -30 26 -31 34 -4 48 17
10 26 6 60 -24 43 -40 60 -44 83 -21 40 40 -20 130 -80 121 -25 -3 -36 1 -57
25 -25 29 -59 37 -86 20 -19 -12 -7 -73 19 -96 27 -24 25 -31 -10 -43 -27 -10
-29 -14 -24 -44 4 -18 17 -41 30 -51 31 -24 30 -35 -2 -47 -21 -8 -24 -15 -20
-41 2 -17 14 -41 25 -53 27 -28 26 -32 -4 -40 -21 -5 -24 -10 -18 -36 5 -25 2
-30 -14 -30 -18 0 -19 10 -17 263 1 280 1 285 -51 340 -36 38 -94 38 -135 -1
-33 -32 -64 -97 -54 -113 8 -13 9 -487 1 -495 -11 -11 -24 5 -31 36 -3 19 -14
34 -27 38 -21 8 -21 8 5 37 21 22 26 37 24 64 -4 46 -26 51 -72 16 -29 -22
-34 -32 -33 -62 2 -24 9 -39 24 -47 21 -11 21 -11 -7 -45 -25 -29 -33 -33 -59
-28 -20 4 -41 0 -60 -11 -38 -21 -52 -9 -54 44 -2 36 -4 39 -33 42 -35 3 -64
-18 -64 -49 0 -23 -13 -25 -30 -4 -18 21 -38 19 -70 -9 -38 -32 -110 -43 -127
-20 -7 10 -10 27 -7 38 3 12 -1 29 -9 40 -20 27 -57 6 -57 -33 0 -40 -9 -43
-36 -13 l-24 27 -23 -27 c-16 -19 -34 -27 -67 -30 -25 -3 -52 -8 -61 -12 -10
-4 -23 0 -35 11 -17 17 -17 18 12 21 16 2 36 13 45 24 13 17 20 18 36 9 22
-11 34 -4 47 33 6 18 7 18 25 2 18 -17 20 -17 40 3 11 11 23 32 27 46 l6 26
12 -23 c25 -49 66 -17 66 51 0 56 -49 66 -72 16 -8 -18 -17 -24 -27 -19 -32
13 -45 8 -59 -19 -11 -23 -16 -25 -32 -17 -20 10 -60 -5 -60 -22 0 -5 -13 -8
-29 -8 -16 0 -34 -6 -41 -14 -6 -8 -24 -16 -38 -18 -16 -2 -31 -12 -37 -25 -7
-17 -15 -20 -36 -16 -18 3 -28 0 -32 -11 -4 -9 -17 -16 -30 -16 -13 0 -27 -4
-32 -9 -17 -15 -122 -24 -130 -11 -12 19 19 41 63 47 23 3 47 12 53 19 6 8 24
14 39 14 15 0 33 7 40 15 7 8 20 15 30 15 9 0 42 14 73 30 31 17 66 30 76 30
11 0 25 8 30 19 7 13 18 17 35 14 21 -4 28 0 36 22 8 22 13 25 25 15 20 -16
50 -4 63 25 10 23 14 24 38 13 23 -11 28 -10 40 7 8 10 14 24 14 31 0 9 7 10
29 1 15 -5 35 -7 44 -4 33 13 34 101 1 114 -18 7 -64 -33 -64 -56 0 -12 -3
-12 -12 -3 -20 20 -57 14 -69 -12 -9 -18 -18 -23 -47 -22 -27 1 -39 -4 -47
-21 -7 -14 -16 -19 -24 -14 -17 11 -47 3 -62 -15 -6 -8 -19 -14 -29 -14 -9 0
-29 -9 -43 -20 -14 -11 -35 -20 -46 -20 -12 0 -24 -7 -28 -16 -3 -10 -13 -14
-25 -11 -12 3 -28 -3 -39 -14 -11 -11 -26 -18 -32 -16 -7 2 -21 -4 -33 -14
-15 -15 -48 -22 -132 -31 -120 -13 -135 -21 -107 -64 17 -26 30 -30 40 -14 5
8 11 7 21 -1 22 -18 17 -29 -15 -29 -17 0 -33 -4 -36 -10 -3 -5 -17 -10 -31
-10 -23 0 -24 3 -24 59 0 41 -5 62 -16 71 -8 8 -14 25 -12 39 3 26 3 26 87 23
87 -3 165 8 216 33 17 7 53 23 80 35 56 24 99 42 148 64 17 7 93 40 167 71 74
32 163 71 198 87 35 16 111 48 170 72 59 24 175 73 258 110 207 90 248 99 343
70z m-599 -124 c0 -5 -20 -15 -45 -21 -25 -6 -45 -15 -45 -20 0 -4 -16 -11
-35 -15 -19 -3 -39 -12 -46 -20 -6 -8 -24 -14 -40 -14 -16 0 -29 -4 -29 -10 0
-5 -12 -13 -27 -16 -16 -4 -37 -13 -48 -20 -11 -7 -41 -20 -65 -29 -25 -8 -70
-27 -100 -42 -30 -14 -68 -31 -85 -38 -16 -7 -51 -22 -76 -34 -25 -12 -52 -21
-58 -21 -6 0 -29 -9 -51 -20 -24 -12 -41 -16 -45 -10 -3 6 2 13 12 16 18 6 92
39 163 71 19 9 49 22 65 29 17 6 51 21 76 33 25 12 54 21 63 21 9 0 16 4 16 9
0 5 10 12 23 16 28 8 113 43 149 61 14 8 36 14 47 14 12 0 24 7 27 15 4 8 18
15 34 15 15 0 35 9 45 20 18 20 75 28 75 10z m780 -215 c0 -8 -4 -15 -10 -15
-5 0 -10 7 -10 15 0 8 5 15 10 15 6 0 10 -7 10 -15z m-1629 -134 c-16 -10
-187 -8 -197 2 -4 4 42 7 102 7 68 0 104 -4 95 -9z m2909 1 c0 -11 -181 -12
-200 -1 -9 5 26 9 93 9 59 0 107 -4 107 -8z m-105 -222 c3 -5 -1 -10 -10 -10
-9 0 -13 5 -10 10 3 6 8 10 10 10 2 0 7 -4 10 -10z m-295 -15 c0 -8 -4 -15
-10 -15 -5 0 -10 7 -10 15 0 8 5 15 10 15 6 0 10 -7 10 -15z m423 -195 c4 0 7
-27 7 -59 0 -64 2 -62 -65 -76 -36 -8 -67 -28 -171 -114 -68 -55 -82 -62 -110
-58 -30 5 -91 42 -174 107 -81 63 -194 98 -279 85 -62 -9 -153 -54 -226 -111
-139 -109 -149 -109 -278 -11 -109 84 -172 115 -254 123 -111 12 -195 -22
-356 -144 -94 -71 -108 -70 -241 19 -146 97 -217 122 -321 116 -104 -6 -149
-26 -283 -131 -51 -39 -73 -50 -111 -54 -46 -4 -49 -3 -137 68 -49 39 -106 80
-126 91 -37 19 -38 21 -38 77 0 32 4 62 9 68 7 6 2620 10 3154 4z m-1141 -408
c6 -6 5 -12 -3 -18 -18 -11 -1020 -13 -1041 -2 -10 5 -18 14 -18 21 0 16 1046
15 1062 -1z m-1228 -92 c74 -51 74 -49 80 -217 6 -175 2 -183 -60 -163 -22 8
-69 11 -118 8 -95 -5 -133 -23 -269 -123 -105 -77 -129 -81 -199 -32 -83 57
-177 138 -182 155 -20 68 -40 318 -27 326 6 4 28 -9 49 -29 66 -59 124 -80
222 -80 101 0 137 14 274 107 145 98 153 99 230 48z m169 18 c12 -7 45 -15 72
-18 l50 -5 3 -132 3 -132 -26 -7 c-32 -8 -112 21 -124 44 -13 27 -23 262 -10
262 6 0 20 -5 32 -12z m1525 -8 c18 -11 60 -42 95 -69 108 -84 138 -96 247
-96 87 0 100 3 155 32 33 17 80 50 104 72 24 23 52 41 63 41 17 0 19 -5 15
-32 -4 -18 -11 -87 -17 -153 -15 -159 -20 -175 -72 -203 -24 -12 -74 -49 -111
-81 -94 -81 -115 -89 -167 -62 -23 12 -65 39 -93 60 -128 96 -217 130 -305
117 -26 -4 -58 -8 -72 -9 l-25 -2 -3 164 c-2 117 1 168 10 178 16 20 99 62
123 62 11 1 35 -8 53 -19z m-461 -41 c7 -36 13 -42 47 -54 54 -19 79 -47 85
-97 6 -41 8 -43 41 -46 44 -5 52 -16 45 -72 -3 -25 -1 -71 3 -102 12 -79 3
-91 -58 -83 -76 10 -80 0 -80 -225 0 -131 4 -190 12 -198 7 -7 33 -12 59 -12
26 0 51 -6 57 -13 7 -8 9 -46 7 -96 -2 -46 0 -92 5 -101 12 -22 -6 -40 -40
-40 -35 0 -50 -17 -50 -57 0 -41 -35 -78 -87 -90 -32 -7 -38 -13 -47 -52 l-11
-43 -424 1 c-233 1 -426 3 -429 6 -10 10 -11 414 -1 421 20 12 47 -27 59 -87
10 -45 10 -63 1 -72 -28 -28 1 -107 40 -107 11 0 32 13 47 30 17 18 49 36 82
46 49 15 56 15 81 0 54 -32 99 -11 99 47 0 25 -7 36 -28 48 -37 21 -58 106
-34 140 9 13 12 32 8 51 -5 25 7 50 76 161 44 73 89 140 98 150 16 18 18 17
48 -8 22 -18 38 -24 54 -20 19 5 25 1 34 -22 12 -32 73 -69 97 -60 9 3 26 25
39 48 46 82 74 128 121 197 26 38 47 74 47 79 0 20 -81 63 -106 57 -21 -5 -24
-12 -24 -50 0 -49 -13 -56 -55 -28 -33 22 -31 32 9 49 19 8 37 19 41 25 12 20
-7 52 -41 66 -44 19 -45 47 -1 59 26 8 33 16 35 41 2 25 -3 37 -28 58 -56 47
-110 30 -110 -36 0 -33 -13 -61 -67 -147 -36 -58 -83 -133 -103 -166 -21 -33
-66 -106 -101 -163 -35 -56 -79 -127 -97 -158 -22 -36 -44 -59 -62 -65 -15 -6
-32 -21 -38 -34 -16 -35 -121 -61 -138 -34 -4 7 -22 9 -48 5 l-42 -7 3 448 c1
246 2 449 3 451 0 1 193 2 429 2 l430 0 8 -41z m220 -46 c2 -99 -12 -109 -48
-35 -18 36 -34 52 -66 67 -27 12 -43 26 -43 37 0 15 10 17 78 15 l77 -2 2 -82z
m-1233 -249 c28 -11 18 -27 -11 -19 -37 9 -53 25 -26 25 12 0 28 -3 37 -6z
m24 -81 l53 -5 -3 -116 -3 -117 -37 -3 c-37 -3 -83 15 -112 43 -13 13 -16 38
-16 117 l0 100 33 -7 c17 -3 56 -9 85 -12z m854 -22 c72 -46 102 -70 94 -78
-7 -7 -166 98 -166 110 0 12 6 9 72 -32z m2 -109 c8 -13 -8 -30 -36 -37 -23
-6 -28 -3 -34 19 -3 14 -4 33 0 41 5 14 9 14 35 0 16 -8 32 -18 35 -23z m337
-12 c15 -9 19 -22 19 -63 l0 -52 -34 -1 c-27 0 -36 4 -40 20 -11 42 -6 85 12
95 21 13 20 13 43 1z m-1186 -160 c4 -6 -8 -10 -29 -10 -19 0 -38 5 -41 10 -4
6 8 10 29 10 19 0 38 -4 41 -10z m-254 -28 c77 -50 76 -49 83 -229 7 -186 5
-191 -68 -165 -58 20 -170 12 -232 -18 -27 -13 -83 -50 -125 -82 -42 -32 -81
-58 -87 -58 -24 0 -198 377 -182 394 5 5 34 4 70 -4 50 -11 72 -11 118 0 71
15 107 34 242 126 69 47 94 59 126 63 5 0 30 -12 55 -27z m1414 8 c4 -7 13 -7
26 0 22 12 22 11 19 -60 -2 -54 -15 -72 -49 -68 -23 3 -26 8 -29 47 -5 70 13
114 33 81z m365 -60 c136 -102 167 -115 270 -115 65 0 91 4 110 18 32 22 50
22 50 -2 0 -24 -99 -254 -146 -337 -20 -36 -43 -68 -50 -71 -8 -3 -31 8 -51
25 -171 133 -280 177 -383 152 -27 -6 -54 -9 -60 -5 -6 4 -10 65 -10 164 0
176 -3 168 78 217 62 39 87 32 192 -46z m-1585 14 c15 -10 36 -14 52 -11 51 9
53 4 53 -123 0 -133 -3 -137 -79 -118 -67 17 -78 38 -84 161 -5 101 -4 107 14
107 11 0 31 -7 44 -16z m424 -237 c18 -49 10 -64 -39 -72 -50 -8 -59 -1 -63
50 -2 37 0 40 33 52 46 16 52 13 69 -30z m-401 -82 c-8 -8 -48 8 -42 16 3 5
14 4 25 -2 12 -6 19 -12 17 -14z m-42 -60 c11 -8 41 -15 70 -15 33 0 53 -5 55
-12 2 -7 3 -62 1 -121 -3 -101 -5 -109 -25 -116 -27 -10 -104 11 -128 36 -15
15 -18 37 -20 119 -2 125 5 141 47 109z m1288 -157 c-3 -40 -7 -78 -9 -84 -2
-7 -33 -11 -80 -12 -66 0 -76 2 -73 16 2 9 20 25 40 34 40 19 78 62 78 89 0
17 13 27 38 28 9 1 11 -17 6 -71z m-1418 -219 c150 -116 258 -153 380 -130 81
15 133 40 243 120 46 33 92 63 103 67 38 12 83 -7 151 -61 135 -109 217 -141
322 -126 82 12 149 42 274 123 60 39 116 68 130 68 32 0 161 -88 161 -109 0
-40 -239 -240 -400 -335 -118 -70 -230 -126 -254 -126 -9 0 -51 29 -95 64 -96
78 -165 106 -260 106 -113 0 -193 -34 -313 -132 -25 -21 -51 -38 -58 -38 -15
0 -175 80 -255 128 -145 87 -405 306 -405 342 0 24 126 100 166 100 23 0 52
-16 110 -61z"/>
<path d="M4978 7743 c-23 -6 -30 -35 -26 -108 l3 -60 50 0 50 0 3 71 c4 93
-14 114 -80 97z"/>
<path d="M5550 7700 c-6 -11 -10 -48 -8 -83 3 -56 5 -62 29 -71 14 -5 38 -6
53 -2 25 6 26 9 26 72 0 36 -5 74 -10 85 -15 27 -75 26 -90 -1z"/>
<path d="M4370 7701 c-14 -27 -13 -134 2 -149 15 -15 53 -16 79 -2 16 9 19 22
19 78 0 40 -5 73 -12 80 -20 20 -76 15 -88 -7z"/>
<path d="M3785 7677 c-11 -18 -14 -38 -9 -85 6 -56 10 -63 32 -69 14 -3 37 -2
51 3 25 9 26 12 22 79 -2 39 -8 76 -13 83 -18 21 -66 14 -83 -11z"/>
<path d="M6151 7691 c-9 -6 -18 -37 -23 -78 -9 -77 0 -93 57 -93 45 0 55 16
55 85 0 47 -4 66 -18 78 -20 19 -49 22 -71 8z"/>
<path d="M4955 6665 c-33 -6 -93 -28 -132 -49 -69 -34 -73 -38 -73 -70 0 -65
54 -73 100 -15 66 83 104 109 163 109 49 0 85 -26 158 -112 33 -41 58 -47 83
-22 19 19 21 68 4 81 -25 20 -173 81 -208 86 -19 3 -62 -1 -95 -8z"/>
<path d="M5299 6560 c-11 -6 -17 -23 -17 -47 0 -33 5 -41 35 -61 48 -31 66
-26 74 23 8 51 5 58 -37 78 -40 20 -35 19 -55 7z"/>
<path d="M4637 6530 c-23 -20 -45 -30 -66 -30 -66 0 -110 -87 -56 -112 28 -13
69 8 80 41 5 18 8 19 40 5 28 -12 35 -12 42 0 4 7 18 18 31 25 17 9 22 20 22
50 0 38 -11 51 -45 51 -8 0 -30 -13 -48 -30z"/>
<path d="M5427 6503 c-4 -3 -7 -24 -7 -45 0 -39 27 -78 54 -78 16 0 46 26 46
41 0 5 5 9 10 9 6 0 8 -11 4 -26 -12 -46 53 -93 84 -62 13 13 16 56 6 83 -10
24 -51 37 -75 24 -17 -9 -21 -7 -25 9 -9 31 -78 64 -97 45z"/>
<path d="M4775 6445 c-28 -27 -32 -62 -11 -90 13 -19 16 -19 50 -3 27 13 36
25 42 53 3 19 4 42 0 50 -8 23 -54 18 -81 -10z"/>
<path d="M4407 6438 c-27 -20 -20 -98 9 -108 16 -6 26 -1 48 26 25 31 26 37
14 62 -15 31 -45 39 -71 20z"/>
<path d="M4643 6391 c-18 -16 -33 -36 -33 -42 0 -10 -3 -10 -12 -1 -36 36
-108 -15 -106 -75 1 -23 8 -34 26 -43 22 -9 29 -7 53 16 17 16 29 38 29 53 l0
24 24 -22 c29 -27 51 -23 89 17 22 23 25 32 18 62 -9 48 -44 52 -88 11z"/>
<path d="M5649 6389 c-14 -27 -3 -85 17 -93 28 -11 53 -6 62 10 7 13 10 10 15
-15 8 -39 32 -49 69 -28 27 16 28 16 28 -7 0 -13 7 -30 16 -37 14 -11 19 -10
35 10 21 26 24 53 8 83 -8 16 -17 19 -40 14 -22 -4 -31 -1 -39 14 -13 25 -47
35 -66 19 -16 -13 -16 -14 -32 24 -14 34 -56 37 -73 6z"/>
<path d="M5443 6360 c-19 -8 -23 -17 -23 -53 0 -57 25 -82 74 -74 29 5 37 2
50 -18 33 -51 86 -39 86 19 0 37 -7 49 -38 65 -19 10 -25 8 -47 -15 l-25 -27
0 29 c0 17 -10 40 -25 57 -14 15 -27 27 -28 26 -1 0 -12 -4 -24 -9z"/>
<path d="M4777 6302 c-21 -22 -26 -36 -24 -61 6 -47 32 -59 65 -29 37 32 42
40 42 69 0 53 -42 64 -83 21z"/>
<path d="M4414 6292 c-28 -23 -38 -76 -18 -97 44 -43 100 22 75 88 -12 31 -27
34 -57 9z"/>
<path d="M4295 6236 c-24 -36 -15 -90 14 -94 45 -7 75 50 55 102 -9 25 -51 19
-69 -8z"/>
<path d="M4630 6230 c-24 -34 -21 -76 5 -87 46 -17 117 56 95 97 -18 33 -74
27 -100 -10z"/>
<path d="M4528 6195 c-45 -25 -49 -83 -6 -106 29 -16 78 32 78 77 0 44 -25 54
-72 29z"/>
<path d="M5433 6203 c-16 -6 -17 -57 -3 -83 17 -32 43 -41 74 -25 24 13 28 12
33 -3 18 -50 64 -68 83 -31 27 49 -25 119 -68 93 -13 -9 -23 -4 -48 23 -30 32
-45 37 -71 26z"/>
<path d="M4396 6124 c-14 -21 -27 -31 -31 -25 -18 30 -85 -8 -85 -48 0 -10 8
-29 18 -41 l17 -21 28 21 c17 13 27 31 27 47 0 25 1 25 18 10 21 -19 67 -23
77 -7 12 20 14 74 4 87 -20 23 -48 14 -73 -23z"/>
<path d="M4640 6101 l-35 -29 18 -36 c19 -41 30 -43 73 -17 38 23 50 67 27 94
-22 24 -42 21 -83 -12z"/>
<path d="M1747 8083 c-12 -11 -8 -23 8 -23 8 0 15 7 15 15 0 16 -12 20 -23 8z"/>
<path d="M3044 8045 c-22 -19 -45 -35 -51 -35 -19 0 -16 -20 2 -20 9 0 18 7
21 15 4 8 12 15 19 15 6 0 22 9 35 20 13 11 27 20 32 20 4 0 8 5 8 10 0 20
-29 9 -66 -25z"/>
<path d="M6900 8071 c0 -8 25 -27 75 -58 36 -22 46 -26 52 -19 7 7 -37 45 -53
46 -6 0 -19 9 -29 20 -19 20 -45 27 -45 11z"/>
<path d="M8240 8067 c0 -8 11 -24 25 -37 28 -26 33 -12 9 25 -18 27 -34 33
-34 12z"/>
<path d="M1716 8043 c-11 -11 -6 -23 9 -23 8 0 15 4 15 9 0 13 -16 22 -24 14z"/>
<path d="M8300 8007 c0 -7 22 -38 50 -68 29 -31 50 -47 50 -38 0 8 -16 33 -35
55 -19 21 -35 42 -35 45 0 4 -7 9 -15 13 -8 3 -15 0 -15 -7z"/>
<path d="M1654 7967 c-8 -21 2 -35 16 -21 5 5 6 15 0 24 -8 12 -10 12 -16 -3z"/>
<path d="M2925 7970 c-3 -5 3 -10 14 -10 12 0 21 5 21 10 0 6 -6 10 -14 10 -8
0 -18 -4 -21 -10z"/>
<path d="M7048 7963 c6 -2 18 -2 25 0 6 3 1 5 -13 5 -14 0 -19 -2 -12 -5z"/>
<path d="M7090 7946 c0 -17 23 -27 39 -16 13 8 9 12 -21 23 -12 4 -18 1 -18
-7z"/>
<path d="M2875 7931 c-10 -17 11 -21 31 -6 18 14 18 14 -3 15 -12 0 -24 -4
-28 -9z"/>
<path d="M1597 7905 c-30 -29 -35 -45 -12 -45 8 0 15 7 15 15 0 7 7 18 16 23
9 5 15 14 13 21 -3 7 -15 1 -32 -14z"/>
<path d="M2822 7885 c-11 -13 -22 -21 -26 -18 -3 3 -6 1 -6 -5 0 -16 27 -15
37 1 4 8 16 16 26 20 9 3 17 11 17 17 0 19 -28 10 -48 -15z"/>
<path d="M7156 7901 c-3 -5 1 -12 10 -15 20 -8 29 -1 19 13 -8 13 -22 14 -29
2z"/>
<path d="M1847 7863 c-14 -21 -51 -65 -81 -97 -31 -33 -56 -63 -56 -67 0 -4
15 -18 33 -30 39 -28 260 -219 305 -265 18 -19 36 -34 40 -34 11 0 182 197
182 209 0 14 -34 31 -46 23 -5 -4 -29 -31 -53 -59 -23 -29 -48 -53 -54 -53 -7
0 -38 25 -69 56 -65 63 -65 67 1 127 43 39 49 55 29 75 -21 21 -35 13 -77 -43
-23 -30 -49 -55 -59 -55 -20 1 -112 83 -112 100 0 6 23 33 51 61 55 54 61 82
18 87 -20 2 -31 -5 -52 -35z"/>
<path d="M8416 7872 c-4 -7 28 -52 38 -52 3 0 6 8 6 18 0 18 -36 47 -44 34z"/>
<path d="M7205 7845 c31 -25 55 -32 55 -15 0 6 -6 10 -14 10 -8 0 -16 7 -20
15 -3 8 -16 15 -28 15 -22 0 -22 -1 7 -25z"/>
<path d="M1546 7845 c-8 -22 3 -40 16 -27 7 7 7 16 1 27 -9 16 -10 16 -17 0z"/>
<path d="M2740 7824 c0 -14 3 -15 18 -3 9 7 19 15 21 16 2 2 -5 3 -17 3 -14 0
-22 -6 -22 -16z"/>
<path d="M1516 7802 c-3 -6 -1 -14 5 -17 15 -10 25 3 12 16 -7 7 -13 7 -17 1z"/>
<path d="M2699 7795 c-8 -9 -25 -27 -39 -40 -13 -13 -21 -27 -18 -30 3 -3 13
1 21 10 9 8 20 15 25 15 18 0 46 40 35 51 -8 8 -15 6 -24 -6z"/>
<path d="M7285 7800 c-3 -5 1 -10 10 -10 9 0 13 5 10 10 -3 6 -8 10 -10 10 -2
0 -7 -4 -10 -10z"/>
<path d="M7320 7760 c0 -5 5 -10 10 -10 6 0 10 5 10 10 0 6 -4 10 -10 10 -5 0
-10 -4 -10 -10z"/>
<path d="M1485 7750 c-3 -5 1 -10 9 -10 9 0 16 5 16 10 0 6 -4 10 -9 10 -6 0
-13 -4 -16 -10z"/>
<path d="M8510 7750 c0 -5 5 -10 10 -10 6 0 10 5 10 10 0 6 -4 10 -10 10 -5 0
-10 -4 -10 -10z"/>
<path d="M7354 7739 c-8 -14 18 -31 30 -19 9 9 0 30 -14 30 -5 0 -12 -5 -16
-11z"/>
<path d="M1447 7711 c-5 -22 1 -33 14 -25 12 7 12 44 0 44 -5 0 -11 -9 -14
-19z"/>
<path d="M2574 7685 c-34 -30 -36 -34 -17 -35 13 0 24 8 28 19 3 10 15 21 25
24 11 3 20 10 20 16 0 19 -15 12 -56 -24z"/>
<path d="M8550 7710 c0 -8 15 -37 36 -69 2 -1 7 0 13 4 15 9 -5 45 -25 45 -8
0 -13 4 -9 9 3 5 1 12 -5 16 -5 3 -10 1 -10 -5z"/>
<path d="M7400 7701 c0 -5 7 -11 15 -15 8 -3 15 -12 15 -21 0 -8 7 -15 15 -15
21 0 19 9 -11 36 -27 26 -34 29 -34 15z"/>
<path d="M1416 7661 c-4 -7 -5 -15 -2 -18 9 -9 19 4 14 18 -4 11 -6 11 -12 0z"/>
<path d="M2520 7630 c-8 -5 -11 -12 -7 -16 4 -4 13 -2 19 4 15 15 7 24 -12 12z"/>
<path d="M7475 7610 c10 -11 20 -20 22 -20 1 0 3 9 3 20 0 14 -7 20 -22 20
-20 0 -21 -1 -3 -20z"/>
<path d="M8620 7611 c0 -12 5 -21 10 -21 6 0 10 6 10 14 0 8 -4 18 -10 21 -5
3 -10 -3 -10 -14z"/>
<path d="M2470 7585 c0 -19 11 -19 36 0 18 14 18 14 -8 15 -18 0 -28 -5 -28
-15z"/>
<path d="M7517 7583 c-3 -5 24 -37 59 -72 53 -53 64 -61 64 -43 0 12 -6 22
-14 22 -7 0 -16 9 -19 20 -3 11 -12 20 -20 20 -8 0 -17 9 -20 21 -3 12 -10 18
-16 14 -6 -3 -11 1 -11 9 0 16 -15 22 -23 9z"/>
<path d="M1345 7569 c-4 -6 -5 -13 -2 -16 7 -7 27 6 27 18 0 12 -17 12 -25 -2z"/>
<path d="M8650 7565 c0 -8 5 -15 10 -15 6 0 10 7 10 15 0 8 -4 15 -10 15 -5 0
-10 -7 -10 -15z"/>
<path d="M2425 7535 c-16 -13 -26 -27 -22 -31 10 -10 57 24 57 41 0 19 1 19
-35 -10z"/>
<path d="M8683 7524 c-3 -8 -1 -20 6 -27 8 -8 11 -4 11 16 0 30 -7 35 -17 11z"/>
<path d="M1310 7515 c0 -8 5 -15 10 -15 6 0 10 7 10 15 0 8 -4 15 -10 15 -5 0
-10 -7 -10 -15z"/>
<path d="M1542 7488 c-23 -23 -11 -49 93 -185 127 -166 132 -184 45 -157 -55
17 -245 65 -281 71 -20 4 -31 -3 -53 -31 -42 -55 -34 -68 54 -82 41 -7 107
-20 145 -28 39 -9 104 -23 145 -32 41 -9 82 -20 92 -25 38 -20 88 4 88 42 0 8
-42 71 -92 140 -51 69 -119 164 -151 212 -33 48 -62 87 -66 87 -4 0 -12 -5
-19 -12z"/>
<path d="M1284 7479 c-6 -8 -15 -24 -18 -36 -4 -13 -11 -23 -15 -23 -10 0 -44
-60 -37 -67 7 -7 27 18 48 57 7 14 19 30 27 36 7 6 12 19 10 29 -3 15 -6 16
-15 4z"/>
<path d="M2347 7450 c-35 -50 -14 -55 26 -6 30 39 33 46 15 46 -7 0 -26 -18
-41 -40z"/>
<path d="M8390 7475 c-19 -7 -44 -14 -55 -14 -11 0 -58 -12 -105 -25 -101 -29
-226 -56 -256 -56 -30 0 -44 -20 -33 -47 10 -28 33 -29 95 -2 27 11 57 18 69
15 24 -7 105 -109 105 -134 0 -9 -18 -41 -40 -70 -22 -29 -40 -55 -40 -58 0
-16 57 -84 71 -84 8 0 27 23 43 53 33 62 85 146 174 282 65 97 76 130 50 146
-18 12 -36 10 -78 -6z m-65 -75 c4 -6 -7 -31 -24 -57 -17 -26 -31 -50 -31 -55
0 -4 -10 -8 -22 -8 -26 0 -73 63 -64 86 3 8 18 14 33 14 15 1 39 7 53 15 30
17 47 19 55 5z"/>
<path d="M8720 7468 c0 -9 5 -20 10 -23 13 -8 13 5 0 25 -8 13 -10 13 -10 -2z"/>
<path d="M7660 7437 c0 -19 16 -31 24 -18 3 5 -1 14 -9 21 -12 10 -15 10 -15
-3z"/>
<path d="M8746 7422 c-3 -6 -1 -14 5 -17 15 -10 25 3 12 16 -7 7 -13 7 -17 1z"/>
<path d="M2280 7375 c-32 -34 -16 -46 16 -13 14 14 22 28 16 31 -5 4 -20 -5
-32 -18z"/>
<path d="M8780 7371 c0 -5 5 -13 10 -16 6 -3 10 -2 10 4 0 5 -4 13 -10 16 -5
3 -10 2 -10 -4z"/>
<path d="M7726 7361 c-4 -5 -2 -12 3 -15 5 -4 12 -2 15 3 4 5 2 12 -3 15 -5 4
-12 2 -15 -3z"/>
<path d="M2230 7315 c0 -8 5 -15 10 -15 6 0 10 7 10 15 0 8 -4 15 -10 15 -5 0
-10 -7 -10 -15z"/>
<path d="M8814 7316 c-6 -17 2 -36 17 -36 12 0 12 37 -1 45 -6 3 -13 -1 -16
-9z"/>
<path d="M7760 7307 c0 -14 39 -41 47 -33 3 3 -2 8 -11 12 -9 3 -16 12 -16 20
0 8 -4 14 -10 14 -5 0 -10 -6 -10 -13z"/>
<path d="M1177 7296 c-4 -10 -5 -21 -2 -24 9 -9 17 6 13 25 -3 17 -4 17 -11
-1z"/>
<path d="M2181 7255 c-18 -27 -21 -39 -13 -47 9 -9 12 -8 12 5 0 9 9 26 20 37
20 20 26 40 13 40 -5 0 -19 -16 -32 -35z"/>
<path d="M1140 7246 c0 -8 5 -18 10 -21 6 -3 10 3 10 14 0 12 -4 21 -10 21 -5
0 -10 -6 -10 -14z"/>
<path d="M7826 7235 c4 -8 8 -15 10 -15 2 0 4 7 4 15 0 8 -4 15 -10 15 -5 0
-7 -7 -4 -15z"/>
<path d="M2118 7175 c-16 -18 -28 -39 -28 -46 0 -8 -9 -20 -20 -26 -22 -14
-55 -73 -41 -73 9 0 43 37 71 80 8 12 25 36 38 53 40 55 23 65 -20 12z"/>
<path d="M7861 7195 c0 -18 40 -75 54 -75 13 0 2 28 -25 60 -24 29 -29 32 -29
15z"/>
<path d="M8882 7187 c3 -24 21 -27 26 -4 2 8 -4 17 -13 21 -13 4 -16 1 -13
-17z"/>
<path d="M1111 7186 c-8 -9 -11 -19 -7 -23 9 -9 29 13 24 27 -2 8 -8 7 -17 -4z"/>
<path d="M1071 7122 c-14 -25 -14 -42 -1 -42 15 0 29 35 20 49 -6 11 -10 9
-19 -7z"/>
<path d="M8922 7117 c2 -15 8 -26 13 -25 12 3 8 29 -7 43 -6 7 -8 1 -6 -18z"/>
<path d="M7930 7108 c0 -7 5 -20 10 -28 8 -12 10 -11 10 7 0 12 -4 25 -10 28
-5 3 -10 0 -10 -7z"/>
<path d="M1035 7047 c-4 -10 -5 -21 -1 -24 10 -10 18 4 13 24 -4 17 -4 17 -12
0z"/>
<path d="M7960 7045 c0 -8 9 -23 20 -32 11 -10 20 -23 20 -29 0 -6 7 -17 15
-24 22 -18 20 5 -3 38 -10 15 -22 35 -25 45 -8 21 -27 23 -27 2z"/>
<path d="M8960 7039 c0 -9 7 -22 15 -29 8 -7 15 -19 15 -26 0 -8 5 -14 10 -14
17 0 10 24 -15 55 -17 21 -25 25 -25 14z"/>
<path d="M1990 6990 c0 -11 5 -20 10 -20 6 0 10 9 10 20 0 11 -4 20 -10 20 -5
0 -10 -9 -10 -20z"/>
<path d="M8495 6984 c-109 -54 -149 -115 -149 -229 0 -89 17 -134 82 -213 30
-36 40 -43 66 -40 41 4 40 27 -1 53 -37 23 -83 105 -83 147 0 99 136 207 262
208 50 0 62 -4 92 -30 45 -40 68 -91 64 -143 -3 -36 0 -42 18 -45 31 -4 55 24
48 56 -12 54 -53 130 -90 172 -80 89 -206 115 -309 64z"/>
<path d="M1006 6973 c-6 -14 -5 -15 5 -6 7 7 10 15 7 18 -3 3 -9 -2 -12 -12z"/>
<path d="M9022 6925 c1 -16 9 -30 16 -33 18 -6 15 33 -4 49 -14 11 -15 9 -12
-16z"/>
<path d="M1950 6925 c0 -8 -4 -15 -9 -15 -10 0 -25 -50 -17 -58 3 -2 10 7 15
22 6 14 15 26 21 26 5 0 10 9 10 20 0 11 -4 20 -10 20 -5 0 -10 -7 -10 -15z"/>
<path d="M977 6924 c-4 -4 -7 -15 -7 -23 0 -9 -9 -24 -20 -34 -11 -9 -20 -29
-20 -43 0 -22 2 -25 15 -14 8 7 15 19 15 27 0 8 7 28 16 44 15 30 16 58 1 43z"/>
<path d="M8067 6890 c8 -29 25 -37 21 -9 -1 12 -8 24 -15 26 -7 3 -9 -3 -6
-17z"/>
<path d="M1180 6858 c-33 -54 -25 -66 80 -112 52 -23 151 -70 219 -104 68 -34
126 -62 128 -62 2 0 12 15 23 33 29 46 26 75 -7 84 -16 3 -48 16 -73 29 -74
37 -241 114 -246 114 -3 0 -22 11 -42 25 -48 33 -58 32 -82 -7z"/>
<path d="M9057 6847 c-3 -7 -1 -20 3 -28 7 -11 10 -10 16 4 4 10 2 23 -3 28
-7 7 -12 6 -16 -4z"/>
<path d="M8100 6831 c0 -11 5 -23 10 -26 6 -3 10 3 10 14 0 11 -4 23 -10 26
-5 3 -10 -3 -10 -14z"/>
<path d="M1890 6813 c1 -27 1 -27 15 -9 19 25 19 36 0 36 -10 0 -15 -10 -15
-27z"/>
<path d="M908 6784 c-5 -4 -8 -19 -8 -33 0 -18 3 -22 11 -14 6 6 9 21 7 33 -1
12 -6 18 -10 14z"/>
<path d="M1857 6774 c-9 -9 4 -35 14 -28 5 3 9 12 9 20 0 14 -12 19 -23 8z"/>
<path d="M9090 6761 c0 -11 5 -23 10 -26 6 -3 10 3 10 14 0 11 -4 23 -10 26
-5 3 -10 -3 -10 -14z"/>
<path d="M8140 6750 c0 -11 5 -20 10 -20 6 0 10 9 10 20 0 11 -4 20 -10 20 -5
0 -10 -9 -10 -20z"/>
<path d="M8170 6700 c0 -19 3 -21 12 -12 9 9 9 15 0 24 -9 9 -12 7 -12 -12z"/>
<path d="M1820 6700 c0 -5 5 -10 10 -10 6 0 10 5 10 10 0 6 -4 10 -10 10 -5 0
-10 -4 -10 -10z"/>
<path d="M868 6658 c-5 -28 -4 -29 9 -13 15 21 17 45 4 45 -5 0 -11 -14 -13
-32z"/>
<path d="M9131 6674 c0 -11 3 -14 6 -6 3 7 2 16 -1 19 -3 4 -6 -2 -5 -13z"/>
<path d="M8200 6638 c0 -7 5 -20 10 -28 8 -12 10 -11 10 7 0 12 -4 25 -10 28
-5 3 -10 0 -10 -7z"/>
<path d="M1790 6625 c0 -8 5 -15 10 -15 6 0 10 7 10 15 0 8 -4 15 -10 15 -5 0
-10 -7 -10 -15z"/>
<path d="M9150 6611 c0 -18 21 -64 26 -58 9 8 -6 67 -17 67 -5 0 -9 -4 -9 -9z"/>
<path d="M834 6583 c-4 -16 -10 -32 -14 -38 -5 -5 -13 -27 -18 -48 -8 -29 -8
-37 1 -34 7 2 14 17 15 33 2 16 7 34 12 39 10 13 23 75 16 75 -3 0 -9 -12 -12
-27z"/>
<path d="M8237 6578 c-3 -8 -2 -21 3 -27 11 -19 23 5 12 25 -8 14 -10 14 -15
2z"/>
<path d="M1755 6570 c-3 -5 -1 -18 4 -27 9 -16 10 -14 11 10 0 28 -5 34 -15
17z"/>
<path d="M1031 6516 c-6 -7 -9 -20 -6 -28 5 -13 198 -84 278 -102 45 -10 32
-45 -23 -61 -14 -3 -45 -16 -70 -27 -25 -12 -99 -43 -165 -69 -122 -49 -158
-76 -139 -106 8 -12 154 -68 271 -104 18 -5 45 -16 60 -24 15 -8 35 -15 44
-15 8 0 24 -7 35 -15 38 -29 83 -10 68 29 -5 12 -242 97 -270 96 -6 0 -17 7
-24 15 -10 12 -10 18 0 30 7 8 19 15 27 15 8 0 40 12 71 26 78 36 243 105 267
111 30 8 55 34 55 55 0 21 2 20 -175 83 -184 66 -206 75 -238 91 -36 18 -51
18 -66 0z"/>
<path d="M9192 6501 c2 -19 9 -37 17 -39 11 -4 12 2 7 24 -11 45 -28 55 -24
15z"/>
<path d="M1720 6483 c1 -27 1 -27 15 -9 19 25 19 36 0 36 -10 0 -15 -10 -15
-27z"/>
<path d="M8270 6490 c0 -19 3 -21 12 -12 9 9 9 15 0 24 -9 9 -12 7 -12 -12z"/>
<path d="M8304 6424 c3 -9 6 -22 6 -30 0 -8 4 -14 8 -14 5 0 7 14 4 30 -2 17
-9 30 -14 30 -6 0 -7 -7 -4 -16z"/>
<path d="M768 6414 c-3 -11 -9 -27 -13 -36 -5 -13 -3 -18 8 -18 18 0 29 38 18
58 -7 12 -9 11 -13 -4z"/>
<path d="M1690 6404 c0 -14 4 -23 9 -20 5 3 7 15 4 26 -7 28 -13 25 -13 -6z"/>
<path d="M9230 6398 c0 -15 6 -42 14 -60 8 -18 18 -46 22 -63 7 -27 8 -28 12
-7 2 12 -4 36 -12 54 -9 17 -16 41 -16 52 0 12 -5 28 -10 36 -8 12 -10 9 -10
-12z"/>
<path d="M8340 6333 c0 -17 5 -35 10 -38 13 -8 13 35 0 55 -7 11 -10 7 -10
-17z"/>
<path d="M8519 6338 c-5 -49 9 -58 87 -58 37 0 65 -5 71 -12 14 -19 53 -127
53 -147 0 -11 -25 -36 -60 -60 -33 -23 -60 -47 -60 -52 0 -6 5 -30 11 -55 12
-48 35 -58 60 -27 8 9 70 61 139 116 69 54 134 106 145 116 11 9 39 28 63 44
42 28 54 56 30 74 -7 6 -85 18 -173 27 -88 10 -202 24 -253 32 -113 17 -112
17 -113 2z m378 -94 c5 -16 -95 -94 -113 -87 -16 6 -38 78 -29 94 9 14 137 7
142 -7z"/>
<path d="M1650 6303 c0 -22 2 -25 10 -13 13 20 13 40 0 40 -5 0 -10 -12 -10
-27z"/>
<path d="M742 6295 c0 -16 2 -22 5 -12 2 9 2 23 0 30 -3 6 -5 -1 -5 -18z"/>
<path d="M1628 6264 c-5 -4 -8 -23 -7 -43 0 -34 1 -34 10 -11 11 27 8 66 -3
54z"/>
<path d="M726 6245 c-3 -9 -6 -24 -5 -33 0 -9 5 -4 10 12 9 32 6 48 -5 21z"/>
<path d="M8376 6233 c5 -29 11 -39 18 -32 7 7 -6 59 -15 59 -4 0 -5 -12 -3
-27z"/>
<path d="M700 6166 c0 -13 -9 -52 -20 -87 -12 -35 -19 -75 -17 -89 2 -20 5
-16 15 20 7 25 16 59 21 75 18 58 24 105 12 105 -6 0 -11 -11 -11 -24z"/>
<path d="M9299 6179 c-2 -26 3 -54 11 -63 5 -5 7 8 5 28 -3 38 -14 61 -16 35z"/>
<path d="M8410 6145 c0 -33 12 -65 21 -59 5 3 6 17 3 32 -8 35 -24 52 -24 27z"/>
<path d="M1575 6096 c-9 -21 -14 -43 -12 -49 2 -6 11 9 21 32 9 24 14 46 12
49 -3 3 -13 -12 -21 -32z"/>
<path d="M8445 6030 c-3 -11 -2 -28 4 -37 8 -15 10 -11 11 20 0 41 -5 47 -15
17z"/>
<path d="M9331 6028 c-1 -16 4 -28 9 -28 12 0 12 8 0 35 -8 18 -9 17 -9 -7z"/>
<path d="M1557 6024 c-4 -4 -7 -17 -7 -28 1 -19 1 -20 11 -3 11 19 8 43 -4 31z"/>
<path d="M1522 5920 c-1 -8 -5 -33 -8 -55 -5 -31 -4 -37 5 -29 7 7 11 29 8 55
-2 24 -4 37 -5 29z"/>
<path d="M8475 5919 c-2 -8 4 -41 15 -74 20 -58 20 -51 4 45 -7 41 -12 48 -19
29z"/>
<path d="M637 5903 c-2 -5 -4 -30 -5 -58 l0 -50 14 50 c16 60 17 65 5 65 -6 0
-12 -3 -14 -7z"/>
<path d="M9367 5843 c8 -76 13 -80 13 -10 0 31 -4 58 -9 62 -6 3 -7 -18 -4
-52z"/>
<path d="M841 5796 c-7 -8 -11 -23 -9 -33 3 -15 27 -22 154 -40 174 -26 235
-48 264 -95 24 -40 25 -74 4 -127 -17 -43 -43 -65 -89 -75 -31 -7 -225 16
-307 36 -37 9 -50 9 -62 -1 -16 -14 -23 -86 -8 -95 18 -11 353 -48 386 -42 85
16 146 113 146 232 0 63 -3 76 -30 112 -16 23 -40 48 -52 56 -30 19 -119 41
-243 60 -55 8 -109 18 -121 21 -12 4 -25 0 -33 -9z"/>
<path d="M9138 5795 c-3 -3 -79 -17 -168 -31 -183 -27 -219 -42 -251 -105 -11
-22 -22 -68 -26 -102 -10 -111 53 -212 149 -237 32 -9 72 -8 182 4 201 23 204
24 211 47 14 43 -6 47 -127 27 -167 -27 -259 -28 -295 -2 -64 47 -82 140 -38
193 35 40 87 57 240 76 194 25 179 19 171 67 -9 53 -30 81 -48 63z"/>
<path d="M1486 5765 c-3 -9 -5 -35 -5 -58 1 -40 2 -40 9 13 9 57 7 73 -4 45z"/>
<path d="M8510 5743 c0 -23 5 -45 10 -48 13 -8 13 55 0 75 -7 11 -10 4 -10
-27z"/>
<path d="M9398 5657 c3 -85 10 -120 21 -113 5 3 5 25 0 48 -4 24 -8 62 -9 85
0 23 -3 44 -7 46 -5 3 -7 -27 -5 -66z"/>
<path d="M603 5640 c0 -30 2 -43 4 -27 2 15 2 39 0 55 -2 15 -4 2 -4 -28z"/>
<path d="M1466 5625 c-3 -8 -1 -15 4 -15 6 0 10 7 10 15 0 8 -2 15 -4 15 -2 0
-6 -7 -10 -15z"/>
<path d="M1457 5573 c-4 -3 -6 -36 -6 -72 l2 -66 8 70 c8 71 7 80 -4 68z"/>
<path d="M587 5527 c-5 -27 -6 -51 -3 -54 8 -8 18 42 14 73 -3 24 -5 20 -11
-19z"/>
<path d="M8552 5500 c-1 -51 2 -60 10 -44 6 14 6 36 0 65 l-10 44 0 -65z"/>
<path d="M9420 5466 c0 -20 5 -36 10 -36 6 0 10 13 10 29 0 17 -4 33 -10 36
-6 4 -10 -8 -10 -29z"/>
<path d="M573 5370 c0 -30 2 -43 4 -27 2 15 2 39 0 55 -2 15 -4 2 -4 -28z"/>
<path d="M1436 5409 c-7 -22 -23 -298 -21 -364 1 -33 2 -102 3 -154 1 -52 5
-91 9 -87 4 3 6 93 4 199 -1 105 3 241 9 301 10 97 8 144 -4 105z"/>
<path d="M8574 5313 c2 -27 6 -151 7 -278 3 -215 3 -221 8 -90 8 186 2 415
-11 415 -5 0 -7 -20 -4 -47z"/>
<path d="M9435 4999 c-1 -187 3 -331 7 -319 10 28 11 626 1 645 -4 7 -8 -139
-8 -326z"/>
<path d="M563 5200 c0 -47 2 -66 4 -42 2 23 2 61 0 85 -2 23 -4 4 -4 -43z"/>
<path d="M562 4920 c0 -107 3 -204 8 -215 10 -24 11 153 0 305 -6 94 -7 84 -8
-90z"/>
<path d="M8576 4779 c-10 -29 -26 -172 -25 -222 1 -37 4 -25 10 43 5 52 14
115 19 139 10 40 7 71 -4 40z"/>
<path d="M3093 4734 c-104 -27 -211 -98 -241 -160 -20 -43 -5 -76 46 -100 67
-31 214 16 297 97 23 21 44 39 47 39 4 0 8 -32 10 -72 5 -122 45 -95 55 38 7
86 -5 113 -65 142 -54 28 -91 32 -149 16z"/>
<path d="M6665 4739 c-4 -6 -5 -12 -2 -15 2 -3 7 2 10 11 7 17 1 20 -8 4z"/>
<path d="M6768 4720 c-64 -35 -83 -103 -57 -206 14 -53 27 -64 46 -38 10 13
12 33 8 66 -10 70 1 76 49 30 56 -53 99 -77 174 -97 71 -18 119 -13 157 17 28
22 31 47 11 86 -61 116 -285 198 -388 142z"/>
<path d="M7139 4706 c14 -14 29 -26 34 -26 13 0 -12 29 -37 42 -19 10 -18 8 3
-16z"/>
<path d="M1433 4694 c3 -17 9 -67 13 -110 6 -74 23 -138 24 -89 0 57 -22 211
-31 220 -9 7 -10 2 -6 -21z"/>
<path d="M7185 4660 c3 -5 8 -10 11 -10 2 0 4 5 4 10 0 6 -5 10 -11 10 -5 0
-7 -4 -4 -10z"/>
<path d="M590 4535 c0 -56 13 -165 20 -165 9 0 0 161 -11 180 -6 11 -8 7 -9
-15z"/>
<path d="M9400 4501 c0 -15 -3 -57 -6 -92 -5 -52 -4 -62 6 -52 17 16 27 173
11 173 -6 0 -11 -13 -11 -29z"/>
<path d="M3121 4435 c-58 -30 -152 -48 -205 -39 -22 3 -63 17 -90 31 l-49 25
7 -34 c11 -58 25 -230 25 -325 1 -68 4 -93 14 -93 15 1 2 -9 218 169 76 63
128 117 154 161 9 15 8 82 -1 113 -7 22 -19 21 -73 -8z"/>
<path d="M6819 4428 c0 -18 -4 -42 -8 -53 -14 -35 26 -90 138 -189 90 -79 228
-186 242 -186 3 0 9 66 13 148 4 81 11 178 16 217 5 38 7 71 5 73 -2 2 -24 -5
-49 -17 -91 -40 -192 -34 -293 18 -56 28 -63 27 -64 -11z"/>
<path d="M1474 4398 c10 -90 27 -118 22 -35 -2 38 -9 74 -16 80 -10 10 -11 0
-6 -45z"/>
<path d="M6636 4431 c-3 -5 -8 -136 -11 -292 -5 -312 -10 -370 -31 -443 -35
-122 -10 -195 110 -321 l75 -79 53 23 c256 112 400 217 457 333 37 78 31 98
-56 186 -43 43 -127 115 -186 161 -184 140 -316 273 -351 351 -19 43 -54 91
-60 81z"/>
<path d="M3332 4379 c-34 -61 -82 -128 -127 -177 -32 -36 -192 -170 -289 -241
-32 -24 -94 -79 -137 -122 -92 -92 -96 -107 -50 -197 54 -106 148 -178 367
-283 l125 -60 33 25 c51 39 142 147 160 190 20 48 20 115 1 191 -18 66 -24
173 -29 488 -2 137 -7 222 -14 229 -7 7 -19 -5 -40 -43z"/>
<path d="M8516 4385 c-4 -27 -9 -60 -12 -72 -2 -13 0 -23 5 -23 11 0 25 98 19
126 -3 11 -8 -3 -12 -31z"/>
<path d="M631 4255 c0 -22 10 -83 23 -135 20 -80 24 -89 25 -54 1 23 -8 69
-19 104 -11 34 -18 66 -15 70 3 5 1 19 -4 32 -9 20 -10 18 -10 -17z"/>
<path d="M9373 4250 c0 -25 2 -35 4 -22 2 12 2 32 0 45 -2 12 -4 2 -4 -23z"/>
<path d="M1521 4213 c0 -28 2 -54 7 -57 4 -2 6 14 4 37 -5 68 -10 76 -11 20z"/>
<path d="M8483 4185 c0 -22 2 -30 4 -17 2 12 2 30 0 40 -3 9 -5 -1 -4 -23z"/>
<path d="M9350 4144 c0 -8 5 -12 10 -9 6 3 10 10 10 16 0 5 -4 9 -10 9 -5 0
-10 -7 -10 -16z"/>
<path d="M1551 4074 c-1 -22 2 -44 7 -48 4 -4 15 -28 24 -54 14 -40 17 -43 17
-19 1 16 -4 38 -11 50 -6 12 -17 42 -24 67 l-12 45 -1 -41z"/>
<path d="M8446 4088 c-9 -34 -7 -60 3 -54 11 7 20 76 10 76 -4 0 -9 -10 -13
-22z"/>
<path d="M9318 4016 c-22 -90 -24 -158 -2 -81 20 73 32 145 25 149 -3 2 -14
-28 -23 -68z"/>
<path d="M8418 3994 c-5 -4 -8 -23 -7 -43 0 -34 1 -34 10 -11 11 27 8 66 -3
54z"/>
<path d="M696 3982 c-3 -5 -1 -22 4 -38 8 -29 8 -29 9 9 1 36 -3 45 -13 29z"/>
<path d="M8382 3873 c-6 -15 -14 -39 -18 -53 -6 -22 -5 -23 9 -12 14 12 33 79
24 88 -2 3 -9 -8 -15 -23z"/>
<path d="M1614 3864 c4 -16 13 -42 21 -59 7 -16 17 -39 21 -50 6 -18 7 -18 11
-2 3 10 -2 28 -10 40 -8 12 -18 37 -21 55 -4 17 -12 35 -18 38 -7 5 -9 -3 -4
-22z"/>
<path d="M731 3835 c0 -11 4 -27 9 -35 9 -13 10 -13 9 0 0 8 -4 24 -9 35 l-9
20 0 -20z"/>
<path d="M9264 3816 c-9 -52 0 -64 12 -16 6 22 8 43 3 46 -4 2 -11 -11 -15
-30z"/>
<path d="M8347 3777 c-4 -10 -7 -26 -7 -35 1 -15 2 -15 11 1 6 10 9 25 7 35
-3 16 -4 15 -11 -1z"/>
<path d="M760 3713 c0 -31 15 -61 25 -51 9 9 -4 66 -16 73 -5 4 -9 -6 -9 -22z"/>
<path d="M9238 3724 c-5 -4 -8 -21 -8 -38 0 -21 3 -27 11 -19 6 6 9 23 7 38
-2 15 -6 23 -10 19z"/>
<path d="M1680 3698 c0 -7 12 -35 25 -63 14 -27 25 -56 25 -62 0 -7 4 -13 9
-13 5 0 12 -16 15 -35 4 -19 11 -35 16 -35 4 0 11 -14 15 -30 4 -17 11 -28 16
-24 14 8 11 31 -6 48 -8 8 -18 29 -22 46 -3 18 -12 34 -19 37 -7 3 -16 20 -20
39 -3 19 -10 34 -14 34 -5 0 -11 13 -15 30 -7 30 -25 52 -25 28z"/>
<path d="M8311 3686 c-6 -16 -10 -34 -8 -40 3 -6 10 2 16 18 6 16 10 34 8 40
-3 6 -10 -2 -16 -18z"/>
<path d="M800 3597 c0 -20 5 -39 11 -42 7 -5 9 5 5 31 -8 50 -16 56 -16 11z"/>
<path d="M8277 3617 c-4 -10 -7 -26 -7 -35 1 -15 2 -15 11 1 6 10 9 25 7 35
-3 16 -4 15 -11 -1z"/>
<path d="M9198 3600 c-11 -38 -10 -56 3 -43 6 6 9 23 7 39 l-3 29 -7 -25z"/>
<path d="M8240 3538 c-6 -18 -18 -45 -26 -59 -19 -37 -5 -45 17 -10 17 29 36
101 26 101 -2 0 -10 -15 -17 -32z"/>
<path d="M830 3514 c0 -11 7 -29 15 -40 14 -19 14 -19 15 2 0 11 -7 29 -15 40
-14 19 -14 19 -15 -2z"/>
<path d="M9168 3524 c-5 -4 -8 -19 -8 -33 1 -23 2 -24 11 -8 11 19 9 53 -3 41z"/>
<path d="M870 3412 c0 -18 5 -32 10 -32 6 0 8 11 4 28 -10 39 -14 40 -14 4z"/>
<path d="M9126 3428 c-2 -7 -9 -29 -15 -48 -26 -70 -21 -83 8 -25 32 64 37 85
21 85 -6 0 -12 -6 -14 -12z"/>
<path d="M1820 3396 c0 -8 5 -18 10 -21 6 -3 10 1 10 9 0 8 -4 18 -10 21 -5 3
-10 -1 -10 -9z"/>
<path d="M8143 3338 c-39 -64 -58 -117 -34 -92 16 16 82 146 79 155 -2 5 -22
-23 -45 -63z"/>
<path d="M903 3328 c8 -24 12 -28 15 -15 5 23 -4 47 -17 47 -6 0 -5 -13 2 -32z"/>
<path d="M1850 3331 c0 -4 9 -20 20 -34 11 -14 20 -30 20 -36 0 -6 7 -11 15
-11 16 0 10 28 -10 45 -6 6 -14 18 -18 28 -7 17 -27 24 -27 8z"/>
<path d="M9060 3260 c-6 -11 -9 -26 -7 -33 3 -7 10 1 16 17 14 35 7 47 -9 16z"/>
<path d="M1920 3216 c0 -17 14 -29 23 -20 8 8 -3 34 -14 34 -5 0 -9 -6 -9 -14z"/>
<path d="M8063 3205 c-3 -9 -3 -18 0 -21 9 -9 27 6 27 22 0 19 -19 18 -27 -1z"/>
<path d="M966 3192 c-3 -5 1 -18 9 -28 14 -18 14 -18 10 5 -5 28 -11 36 -19
23z"/>
<path d="M9028 3184 c-5 -4 -8 -16 -8 -28 0 -14 3 -17 11 -9 6 6 9 19 7 28 -1
9 -6 13 -10 9z"/>
<path d="M8035 3150 c3 -5 8 -10 11 -10 2 0 4 5 4 10 0 6 -5 10 -11 10 -5 0
-7 -4 -4 -10z"/>
<path d="M1000 3108 c0 -14 6 -31 14 -37 8 -7 17 -22 20 -35 3 -13 12 -26 20
-29 10 -4 6 13 -14 54 -34 73 -40 80 -40 47z"/>
<path d="M8000 3094 c0 -14 4 -23 10 -19 6 3 10 15 10 26 0 10 -4 19 -10 19
-5 0 -10 -12 -10 -26z"/>
<path d="M8963 3053 c-23 -39 -44 -81 -48 -92 -7 -24 13 -39 21 -14 13 39 48
109 61 125 8 9 13 25 11 35 -2 12 -16 -5 -45 -54z"/>
<path d="M1996 3101 c-4 -7 -5 -15 -2 -18 9 -9 19 4 14 18 -4 11 -6 11 -12 0z"/>
<path d="M2030 3045 c0 -8 5 -15 10 -15 6 0 10 7 10 15 0 8 -4 15 -10 15 -5 0
-10 -7 -10 -15z"/>
<path d="M7965 3051 c-3 -5 -1 -12 5 -16 5 -3 10 1 10 9 0 18 -6 21 -15 7z"/>
<path d="M6675 3019 c-44 -16 -90 -28 -101 -29 -12 0 -27 -7 -34 -16 -11 -12
-10 -18 3 -32 16 -15 20 -15 65 2 26 10 65 25 86 33 50 18 98 52 91 64 -8 13
-19 11 -110 -22z"/>
<path d="M2060 3008 c0 -18 18 -34 28 -24 3 4 -2 14 -11 23 -16 16 -17 16 -17
1z"/>
<path d="M7935 3007 c-4 -10 -5 -21 -1 -24 10 -10 18 4 13 24 -4 17 -4 17 -12
0z"/>
<path d="M6811 2987 c-58 -37 -113 -67 -125 -67 -6 0 -28 -9 -49 -20 -20 -11
-49 -20 -64 -20 -37 0 -57 -14 -50 -34 8 -20 81 -22 114 -3 12 6 48 25 80 42
95 49 143 85 143 106 0 24 -7 24 -49 -4z"/>
<path d="M3066 2985 c-10 -28 11 -63 44 -70 17 -4 34 -13 36 -19 3 -7 -9 -48
-26 -92 -25 -63 -29 -83 -21 -101 21 -47 54 -24 65 46 4 24 13 56 21 72 8 15
15 44 15 63 0 25 7 40 25 54 44 34 30 56 -27 43 -24 -6 -46 -4 -68 5 -42 18
-56 18 -64 -1z"/>
<path d="M2090 2954 c0 -4 16 -26 35 -50 19 -23 35 -47 35 -53 0 -6 6 -11 14
-11 9 0 12 7 9 20 -3 11 -12 20 -19 20 -8 0 -14 6 -14 13 0 6 -12 24 -25 40
-24 27 -35 33 -35 21z"/>
<path d="M7901 2944 c0 -11 3 -14 6 -6 3 7 2 16 -1 19 -3 4 -6 -2 -5 -13z"/>
<path d="M1099 2915 c14 -31 41 -55 41 -37 0 13 -40 72 -49 72 -4 0 -1 -16 8
-35z"/>
<path d="M3986 2925 c-9 -14 -23 -25 -31 -25 -18 0 -27 -14 -19 -34 8 -20 33
-20 58 -1 26 20 49 19 69 -3 20 -22 22 -58 5 -65 -7 -3 -34 -2 -60 1 -39 4
-48 2 -48 -11 0 -9 5 -19 11 -22 6 -4 8 -22 4 -45 -4 -23 -2 -41 4 -45 13 -8
15 -72 2 -79 -5 -3 -23 -1 -40 5 -24 8 -35 8 -46 -1 -27 -22 -18 -40 21 -40
32 0 36 -3 31 -21 -4 -15 1 -23 20 -30 15 -5 23 -15 21 -25 -4 -21 -23 -31
-71 -39 -43 -7 -78 -48 -58 -68 9 -9 19 -8 44 4 57 28 103 39 135 33 19 -4 38
-2 46 6 22 18 50 4 68 -33 23 -49 67 -97 89 -97 29 0 23 25 -16 67 -45 48 -42
71 13 101 43 24 54 48 27 58 -8 3 -27 -3 -43 -14 -17 -12 -33 -17 -41 -13 -20
13 -9 54 19 68 38 19 54 73 21 73 -28 0 -47 26 -31 45 7 8 19 15 26 15 8 0 14
7 14 15 0 8 5 24 12 34 15 25 -4 51 -39 51 -22 0 -24 -3 -19 -26 9 -34 -40
-165 -64 -171 -16 -4 -16 -7 1 -41 24 -46 24 -62 0 -62 -13 0 -21 -8 -23 -22
-4 -34 -43 -36 -63 -4 -19 29 -13 46 16 46 28 0 34 24 15 61 -24 49 -21 69 14
75 34 7 52 49 55 128 3 71 45 93 118 61 25 -11 21 9 -8 41 -14 15 -25 33 -25
40 0 22 -38 16 -45 -6 -4 -11 -18 -28 -32 -37 -24 -16 -25 -16 -65 30 -45 53
-68 58 -92 22z m78 -171 c13 -33 6 -64 -19 -80 -13 -8 -29 -13 -35 -9 -15 9
-12 45 5 51 8 4 15 17 15 30 0 27 24 33 34 8z"/>
<path d="M7864 2904 c3 -9 6 -19 6 -22 0 -9 20 21 20 31 0 4 -7 7 -16 7 -11 0
-14 -5 -10 -16z"/>
<path d="M8886 2904 c-11 -28 -6 -39 9 -20 8 11 15 23 15 28 0 14 -18 9 -24
-8z"/>
<path d="M6397 2866 c-10 -14 -26 -34 -38 -45 -12 -11 -19 -28 -17 -43 3 -20
8 -23 43 -21 l41 3 21 -73 c12 -39 24 -92 27 -116 5 -49 17 -66 40 -58 30 12
17 103 -29 212 -9 22 -24 47 -32 57 -9 10 -13 32 -11 59 4 52 -19 65 -45 25z"/>
<path d="M3305 2860 c-9 -27 -1 -37 56 -65 65 -33 174 -40 174 -11 0 14 -15
23 -65 38 -36 11 -74 28 -86 39 -27 25 -71 25 -79 -1z"/>
<path d="M6740 2861 c-8 -4 -36 -18 -62 -31 -49 -23 -57 -33 -37 -46 10 -6 24
7 32 30 5 14 47 -13 47 -30 0 -8 -10 -18 -22 -23 -13 -4 -17 -10 -11 -14 6 -4
24 0 40 10 19 10 37 14 49 9 17 -7 16 -9 -11 -24 l-30 -17 34 -3 c24 -3 40 3
57 19 25 23 50 20 61 -7 7 -20 -38 -64 -65 -64 -10 0 -28 -7 -40 -16 -12 -8
-35 -14 -50 -12 -23 3 -27 7 -25 31 2 32 -23 68 -43 60 -8 -3 -14 -18 -14 -34
0 -37 36 -109 54 -109 24 0 159 61 204 92 61 42 59 49 -41 144 -36 34 -57 37
-57 9 0 -27 -27 -34 -48 -13 -19 19 -14 28 14 28 14 0 23 4 19 10 -7 12 -34
12 -55 1z m95 -71 c3 -5 1 -10 -4 -10 -6 0 -11 5 -11 10 0 6 2 10 4 10 3 0 8
-4 11 -10z"/>
<path d="M7835 2859 c-4 -6 -5 -12 -2 -15 2 -3 7 2 10 11 7 17 1 20 -8 4z"/>
<path d="M1140 2851 c0 -5 5 -13 10 -16 6 -3 10 -2 10 4 0 5 -4 13 -10 16 -5
3 -10 2 -10 -4z"/>
<path d="M8856 2844 c-9 -22 3 -32 14 -14 12 19 12 30 1 30 -5 0 -12 -7 -15
-16z"/>
<path d="M4988 2810 c-23 -23 -41 -52 -46 -77 -8 -36 -6 -44 15 -72 13 -17 32
-31 42 -31 15 0 17 6 10 53 -12 82 -11 87 12 87 17 0 20 -4 15 -24 -3 -13 -3
-45 0 -70 5 -36 11 -46 25 -46 14 0 19 7 19 30 0 17 5 30 10 30 6 0 10 -8 10
-18 0 -27 20 -42 55 -42 40 0 58 21 75 84 13 48 13 49 -14 73 -15 12 -36 23
-46 23 -10 0 -22 9 -25 20 -8 26 -31 26 -45 0 -10 -19 -11 -19 -43 -1 l-32 18
-37 -37z m122 -55 c0 -8 -5 -17 -11 -21 -16 -9 -30 18 -17 33 12 15 28 8 28
-12z m70 1 c0 -7 -7 -27 -15 -42 -8 -16 -15 -24 -15 -18 0 6 -3 26 -6 43 -6
27 -4 31 15 31 11 0 21 -6 21 -14z"/>
<path d="M2196 2821 c-4 -7 -5 -15 -2 -18 9 -9 19 4 14 18 -4 11 -6 11 -12 0z"/>
<path d="M7800 2814 c0 -8 5 -12 10 -9 6 3 10 10 10 16 0 5 -4 9 -10 9 -5 0
-10 -7 -10 -16z"/>
<path d="M8827 2813 c-11 -10 -8 -43 3 -43 6 0 10 11 10 25 0 26 -2 29 -13 18z"/>
<path d="M4845 2799 c-16 -5 -51 -6 -76 -3 -51 7 -68 -5 -43 -30 22 -23 162
-23 171 0 10 25 -17 43 -52 33z"/>
<path d="M7755 2790 c-10 -17 12 -37 25 -24 8 8 6 15 -4 23 -10 9 -16 9 -21 1z"/>
<path d="M2237 2783 c-4 -3 -7 -11 -7 -17 0 -6 5 -5 12 2 6 6 9 14 7 17 -3 3
-9 2 -12 -2z"/>
<path d="M5636 2765 c-14 -37 -5 -67 29 -101 36 -36 39 -42 29 -68 -5 -12 -20
-16 -59 -16 -59 0 -73 -14 -48 -49 12 -17 21 -20 48 -15 49 9 52 -10 11 -70
-37 -54 -44 -80 -25 -91 16 -10 49 24 71 73 10 23 25 42 32 42 8 0 26 -16 40
-35 15 -19 36 -35 46 -35 21 0 93 87 84 101 -9 15 -30 10 -49 -11 -22 -24 -38
-25 -70 -4 -36 24 -31 39 22 65 26 13 49 30 51 36 5 19 -28 28 -49 15 -42 -27
-70 -6 -45 33 10 15 30 27 52 31 36 7 54 28 38 44 -6 6 -33 4 -67 -4 -66 -15
-84 -8 -89 39 -2 22 -9 31 -24 33 -13 2 -24 -4 -28 -13z"/>
<path d="M1206 2735 c4 -8 10 -15 15 -15 4 0 6 7 3 15 -4 8 -10 15 -15 15 -4
0 -6 -7 -3 -15z"/>
<path d="M2271 2734 c0 -11 3 -14 6 -6 3 7 2 16 -1 19 -3 4 -6 -2 -5 -13z"/>
<path d="M3243 2743 c-7 -2 -13 -18 -13 -34 0 -23 5 -30 28 -35 15 -3 88 -26
162 -50 75 -24 141 -44 147 -44 6 0 19 7 28 16 20 20 4 44 -30 44 -31 0 -246
72 -278 93 -15 9 -28 17 -29 16 -2 0 -9 -3 -15 -6z"/>
<path d="M8787 2744 c-8 -8 3 -34 14 -34 11 0 12 27 0 34 -4 3 -11 3 -14 0z"/>
<path d="M6050 2725 c-7 -8 -23 -15 -35 -15 -29 0 -115 -38 -121 -53 -2 -7 4
-37 13 -67 23 -71 49 -86 107 -59 22 10 55 19 72 19 16 0 35 5 42 12 32 32 -6
178 -46 178 -11 0 -25 -7 -32 -15z m36 -70 c4 -8 3 -26 0 -39 -6 -23 -31 -34
-95 -39 -30 -3 -50 26 -35 51 25 39 118 59 130 27z"/>
<path d="M7720 2724 c0 -8 5 -12 10 -9 6 3 10 10 10 16 0 5 -4 9 -10 9 -5 0
-10 -7 -10 -16z"/>
<path d="M2296 2695 c4 -9 15 -20 25 -26 11 -5 19 -16 19 -24 0 -15 47 -51 55
-43 7 7 -78 107 -92 107 -7 1 -10 -6 -7 -14z"/>
<path d="M4684 2695 c-9 -22 4 -35 35 -35 16 0 37 -10 50 -24 19 -20 22 -34
21 -92 -1 -38 -1 -109 -1 -157 1 -79 3 -88 19 -85 15 3 18 21 22 170 5 155 10
191 27 175 3 -4 8 -65 11 -137 3 -95 8 -133 19 -141 26 -22 38 4 24 53 -7 24
-12 82 -11 128 2 89 -2 135 -10 143 -3 2 -49 7 -103 10 -80 5 -99 4 -103 -8z"/>
<path d="M1240 2681 c0 -6 5 -13 10 -16 6 -3 10 1 10 9 0 9 -4 16 -10 16 -5 0
-10 -4 -10 -9z"/>
<path d="M7680 2675 c-11 -13 -10 -14 4 -9 9 3 16 10 16 15 0 13 -6 11 -20 -6z"/>
<path d="M8744 2673 c-11 -36 -29 -68 -45 -83 -33 -30 -70 -88 -60 -94 9 -6
131 155 131 174 0 18 -20 21 -26 3z"/>
<path d="M1272 2630 c1 -13 9 -25 16 -28 17 -5 15 23 -4 39 -14 11 -15 10 -12
-11z"/>
<path d="M7212 2620 c-13 -16 -52 -53 -87 -82 -65 -51 -82 -76 -29 -42 62 41
154 137 142 149 -2 3 -14 -9 -26 -25z"/>
<path d="M7637 2629 c-10 -11 -16 -23 -13 -27 7 -6 46 27 46 40 0 14 -15 9
-33 -13z"/>
<path d="M2801 2603 c22 -29 62 -67 99 -94 50 -36 60 -41 60 -30 0 5 -9 12
-20 16 -11 3 -46 33 -79 66 -57 57 -88 78 -60 42z"/>
<path d="M4699 2584 c-10 -12 -8 -20 9 -44 26 -35 27 -46 7 -93 -8 -20 -15
-48 -15 -62 0 -34 28 -33 36 3 4 15 13 36 20 47 40 58 -14 200 -57 149z"/>
<path d="M7577 2567 c-34 -42 -25 -49 14 -10 17 17 27 33 22 36 -5 4 -21 -8
-36 -26z"/>
<path d="M1305 2581 c-3 -5 1 -15 8 -23 8 -7 19 -23 26 -36 6 -12 16 -22 21
-22 18 0 10 30 -10 42 -11 7 -20 21 -20 30 0 19 -15 24 -25 9z"/>
<path d="M2400 2581 c0 -6 5 -13 10 -16 6 -3 10 1 10 9 0 9 -4 16 -10 16 -5 0
-10 -4 -10 -9z"/>
<path d="M5147 2573 c-13 -3 -16 -10 -11 -21 11 -24 9 -81 -3 -93 -16 -16 -80
-22 -88 -9 -4 6 -7 36 -7 66 l-1 55 -31 -3 -31 -3 3 -55 c3 -44 9 -61 33 -85
16 -17 29 -37 29 -44 0 -6 -23 -22 -50 -33 -35 -15 -50 -26 -48 -37 3 -11 12
-15 28 -12 14 2 87 4 163 5 110 1 140 4 147 16 24 38 5 51 -52 36 -72 -19
-102 27 -49 75 27 24 31 35 31 78 0 39 -4 53 -19 61 -11 5 -21 9 -23 9 -2 -1
-11 -3 -21 -6z m-40 -179 c8 -21 -13 -42 -28 -27 -13 13 -5 43 11 43 6 0 13
-7 17 -16z"/>
<path d="M2437 2553 c-12 -11 -8 -23 8 -23 8 0 15 7 15 15 0 16 -12 20 -23 8z"/>
<path d="M7526 2514 c-8 -22 1 -31 16 -16 9 9 9 15 1 23 -7 7 -12 5 -17 -7z"/>
<path d="M2477 2513 c-4 -3 -7 -11 -7 -17 0 -6 5 -5 12 2 6 6 9 14 7 17 -3 3
-9 2 -12 -2z"/>
<path d="M1376 2482 c-3 -5 8 -21 25 -36 21 -21 29 -24 29 -12 0 9 -4 16 -9
16 -5 0 -13 9 -16 20 -7 21 -20 26 -29 12z"/>
<path d="M2506 2483 c-11 -11 -6 -23 9 -23 8 0 15 4 15 9 0 13 -16 22 -24 14z"/>
<path d="M7486 2481 c-4 -7 -5 -15 -2 -18 9 -9 19 4 14 18 -4 11 -6 11 -12 0z"/>
<path d="M8617 2484 c-4 -4 -7 -14 -7 -23 0 -11 3 -12 11 -4 6 6 10 16 7 23
-2 6 -7 8 -11 4z"/>
<path d="M2980 2461 c0 -10 30 -24 37 -17 3 2 -5 9 -16 16 -12 6 -21 7 -21 1z"/>
<path d="M2540 2440 c0 -11 7 -20 15 -20 8 0 15 6 15 14 0 8 -7 16 -15 20 -10
4 -15 -1 -15 -14z"/>
<path d="M7008 2453 c7 -3 16 -2 19 1 4 3 -2 6 -13 5 -11 0 -14 -3 -6 -6z"/>
<path d="M7422 2425 c-25 -28 -27 -35 -11 -35 13 0 59 41 59 53 0 16 -28 6
-48 -18z"/>
<path d="M8580 2426 c0 -8 -16 -29 -35 -47 -37 -35 -45 -59 -20 -59 8 0 15 6
15 14 0 7 11 25 24 39 25 27 40 67 25 67 -5 0 -9 -6 -9 -14z"/>
<path d="M3050 2420 c0 -5 7 -10 16 -10 8 0 12 5 9 10 -3 6 -10 10 -16 10 -5
0 -9 -4 -9 -10z"/>
<path d="M1436 2402 c-4 -7 3 -22 17 -34 13 -13 32 -38 42 -55 11 -18 23 -33
27 -33 16 0 7 27 -19 57 -16 18 -35 42 -44 54 -11 16 -18 19 -23 11z"/>
<path d="M2575 2400 c-3 -5 -1 -10 6 -10 6 0 21 -9 33 -20 90 -86 131 -120
140 -117 14 5 20 27 7 27 -5 0 -21 10 -34 23 -54 51 -86 77 -92 77 -3 0 -13 7
-21 15 -18 17 -30 19 -39 5z"/>
<path d="M6855 2380 c-7 -12 2 -12 30 0 19 8 19 9 -2 9 -12 1 -25 -3 -28 -9z"/>
<path d="M7365 2364 c-24 -25 -10 -29 16 -5 13 12 18 21 12 21 -7 0 -19 -7
-28 -16z"/>
<path d="M7302 2319 c-7 -12 -11 -23 -8 -27 7 -6 46 27 46 40 0 16 -25 8 -38
-13z"/>
<path d="M8477 2304 c-9 -9 4 -35 14 -28 5 3 9 12 9 20 0 14 -12 19 -23 8z"/>
<path d="M7245 2271 c-7 -12 12 -24 25 -16 11 7 4 25 -10 25 -5 0 -11 -4 -15
-9z"/>
<path d="M1540 2262 c0 -7 5 -12 10 -12 6 0 9 -3 8 -8 -2 -4 7 -18 20 -32 15
-17 22 -19 22 -9 0 9 -13 28 -30 44 -16 16 -30 23 -30 17z"/>
<path d="M8440 2252 c0 -9 -42 -58 -117 -140 -42 -44 -52 -62 -35 -62 10 0 85
82 121 132 14 21 32 38 39 38 6 0 12 9 12 20 0 11 -4 20 -10 20 -5 0 -10 -4
-10 -8z"/>
<path d="M2780 2236 c0 -9 7 -16 16 -16 9 0 14 5 12 12 -6 18 -28 21 -28 4z"/>
<path d="M7197 2244 c-14 -14 -6 -24 19 -24 16 0 24 5 22 13 -5 14 -31 21 -41
11z"/>
<path d="M2820 2194 c0 -9 7 -14 17 -12 25 5 28 28 4 28 -12 0 -21 -6 -21 -16z"/>
<path d="M7160 2190 c0 -5 5 -10 10 -10 6 0 10 5 10 10 0 6 -4 10 -10 10 -5 0
-10 -4 -10 -10z"/>
<path d="M1620 2170 c0 -5 5 -10 11 -10 5 0 7 5 4 10 -3 6 -8 10 -11 10 -2 0
-4 -4 -4 -10z"/>
<path d="M7111 2166 c-7 -9 -8 -17 -2 -20 14 -9 41 4 41 20 0 18 -24 18 -39 0z"/>
<path d="M2870 2160 c0 -5 6 -10 14 -10 8 0 18 5 21 10 3 6 -3 10 -14 10 -12
0 -21 -4 -21 -10z"/>
<path d="M1652 2133 c2 -9 9 -18 16 -21 18 -6 15 25 -4 32 -11 4 -14 1 -12
-11z"/>
<path d="M2910 2130 c0 -5 9 -10 20 -10 11 0 20 5 20 10 0 6 -9 10 -20 10 -11
0 -20 -4 -20 -10z"/>
<path d="M7060 2120 c0 -5 -11 -12 -25 -16 -14 -3 -25 -12 -25 -20 0 -19 3
-18 47 12 49 33 50 34 25 34 -12 0 -22 -4 -22 -10z"/>
<path d="M1690 2095 c0 -21 17 -45 32 -45 14 0 9 17 -12 41 -19 23 -19 23 -20
4z"/>
<path d="M2960 2100 c0 -5 9 -10 21 -10 11 0 17 5 14 10 -3 6 -13 10 -21 10
-8 0 -14 -4 -14 -10z"/>
<path d="M3002 2068 c3 -7 15 -18 27 -24 13 -7 28 -17 34 -23 6 -6 20 -11 32
-11 16 0 13 6 -20 35 -40 34 -81 47 -73 23z"/>
<path d="M6944 2049 c-22 -17 -51 -36 -66 -41 -16 -6 -28 -14 -28 -19 0 -17
35 -9 53 11 9 11 24 20 32 20 8 0 15 7 15 15 0 8 3 14 8 14 24 -4 42 3 42 16
0 22 -13 19 -56 -16z"/>
<path d="M1740 2025 c0 -8 7 -15 15 -15 8 0 15 4 15 9 0 5 -7 11 -15 15 -9 3
-15 0 -15 -9z"/>
<path d="M8244 2026 c-10 -27 2 -43 14 -19 8 14 9 24 2 28 -6 3 -13 -1 -16 -9z"/>
<path d="M1790 1982 c0 -13 6 -22 15 -22 8 0 15 -5 15 -12 0 -10 92 -104 163
-165 14 -11 30 -29 35 -40 8 -14 14 -15 23 -6 13 13 4 33 -14 33 -7 0 -20 12
-31 28 -10 15 -43 45 -72 66 -30 22 -54 42 -54 46 0 4 -18 27 -40 51 -35 39
-40 41 -40 21z"/>
<path d="M3120 1992 c0 -13 38 -23 46 -11 3 5 1 9 -5 9 -5 0 -16 3 -25 6 -9 3
-16 2 -16 -4z"/>
<path d="M8213 1993 c-7 -3 -13 -11 -13 -19 0 -8 -4 -14 -10 -14 -15 0 -184
-169 -177 -177 4 -3 26 12 50 34 24 22 53 49 65 59 12 10 22 24 22 31 0 7 4
13 9 13 13 0 73 61 69 70 -2 4 -9 5 -15 3z"/>
<path d="M6813 1973 c-22 -8 -14 -23 13 -23 15 0 24 5 22 12 -5 14 -18 18 -35
11z"/>
<path d="M3180 1961 c0 -5 9 -13 20 -16 11 -3 20 -11 20 -16 0 -5 11 -9 24 -9
14 0 31 -8 38 -18 16 -22 72 -40 66 -21 -2 7 -19 18 -37 24 -17 6 -35 15 -39
20 -8 12 -70 45 -83 45 -5 0 -9 -4 -9 -9z"/>
<path d="M6740 1930 c-12 -8 -12 -10 2 -15 19 -7 38 1 38 16 0 12 -21 11 -40
-1z"/>
<path d="M6675 1890 c-3 -6 5 -10 19 -10 14 0 28 5 31 10 3 6 -5 10 -19 10
-14 0 -28 -4 -31 -10z"/>
<path d="M3354 1869 c-7 -12 12 -29 34 -29 19 0 14 18 -7 30 -14 7 -22 7 -27
-1z"/>
<path d="M6615 1859 c-4 -6 -5 -13 -2 -16 8 -7 47 7 47 18 0 13 -37 11 -45 -2z"/>
<path d="M6553 1830 c-13 -5 -23 -14 -23 -21 0 -6 7 -8 16 -5 9 3 22 6 30 6 8
0 14 7 14 15 0 17 -5 18 -37 5z"/>
<path d="M3425 1820 c3 -5 15 -10 26 -10 10 0 19 5 19 10 0 6 -12 10 -26 10
-14 0 -23 -4 -19 -10z"/>
<path d="M3500 1791 c0 -5 14 -12 30 -16 17 -4 30 -10 30 -14 0 -11 103 -51
130 -50 15 0 19 3 10 6 -8 3 -38 16 -66 29 -28 13 -54 24 -58 24 -4 0 -14 7
-22 15 -17 16 -54 20 -54 6z"/>
<path d="M6465 1790 c-8 -12 20 -24 35 -15 5 3 10 10 10 16 0 12 -37 12 -45
-1z"/>
<path d="M6420 1762 c-35 -5 -50 -22 -19 -22 24 0 58 16 49 22 -3 2 -16 2 -30
0z"/>
<path d="M7983 1763 c-7 -3 -13 -11 -13 -18 0 -7 -9 -15 -20 -18 -19 -5 -29
-27 -11 -27 15 0 74 57 65 62 -5 3 -15 3 -21 1z"/>
<path d="M3037 1743 c-4 -3 -7 -12 -7 -18 0 -15 78 -105 91 -105 17 0 9 41
-17 86 -24 40 -50 55 -67 37z"/>
<path d="M6881 1736 c-7 -8 -23 -17 -36 -20 -28 -7 -35 -43 -10 -52 8 -4 15
-12 15 -20 0 -7 10 -25 23 -40 21 -24 25 -25 45 -13 25 16 36 8 28 -19 -8 -24
-52 -44 -80 -36 -11 3 -31 17 -43 32 -21 25 -23 25 -41 9 -10 -9 -24 -17 -30
-17 -22 0 -12 38 16 58 22 17 25 23 14 33 -10 11 -20 11 -55 -2 -38 -13 -42
-17 -39 -44 2 -16 9 -34 16 -39 26 -21 28 -65 6 -97 -27 -36 -69 -41 -72 -6
-1 12 -3 38 -5 57 -1 19 -3 45 -3 57 0 32 -12 35 -56 13 -56 -29 -58 -40 -19
-101 41 -65 42 -72 10 -93 -28 -18 -32 -38 -12 -58 7 -7 16 -21 20 -30 3 -10
16 -18 28 -18 19 0 20 4 14 40 -6 38 -5 40 30 55 47 19 45 19 45 -5 0 -30 20
-25 88 25 34 25 64 45 67 45 3 0 5 -10 5 -22 -1 -36 -49 -83 -125 -124 -118
-62 -156 -100 -124 -120 6 -3 23 3 37 14 15 12 69 46 120 77 75 45 96 54 108
44 22 -18 17 -42 -17 -70 -36 -30 -32 -49 11 -49 19 0 36 10 54 31 30 35 30
39 14 73 -16 36 11 63 71 71 75 11 109 25 131 55 41 58 7 84 -46 35 -15 -14
-33 -25 -40 -25 -8 0 -43 -14 -79 -31 -83 -39 -110 -29 -61 24 13 14 30 43 37
64 19 59 62 74 79 27 7 -16 16 -24 27 -22 23 4 28 32 13 69 -9 22 -19 29 -39
29 -22 0 -31 8 -49 45 -12 25 -22 54 -22 63 0 38 -46 56 -69 28z m27 -100 c3
-12 -1 -17 -10 -14 -7 3 -15 13 -16 22 -3 12 1 17 10 14 7 -3 15 -13 16 -22z
m-88 -132 c0 -31 -23 -28 -28 4 -2 15 2 22 12 22 11 0 16 -9 16 -26z"/>
<path d="M2050 1722 c0 -5 15 -19 33 -32 17 -13 36 -29 40 -37 4 -7 14 -13 21
-13 8 0 20 -10 28 -21 8 -12 21 -20 32 -18 14 3 0 19 -60 67 -77 61 -94 70
-94 54z"/>
<path d="M6313 1723 c-25 -9 -13 -23 15 -17 46 11 61 23 27 23 -16 0 -36 -3
-42 -6z"/>
<path d="M6228 1693 c-10 -2 -18 -9 -18 -14 0 -15 53 -6 58 9 4 12 -8 14 -40
5z"/>
<path d="M3803 1665 c27 -14 63 -25 80 -24 l32 1 -35 10 c-19 5 -50 16 -68 24
-54 23 -61 15 -9 -11z"/>
<path d="M7900 1680 c0 -5 4 -10 9 -10 6 0 13 5 16 10 3 6 -1 10 -9 10 -9 0
-16 -4 -16 -10z"/>
<path d="M6110 1650 c-11 -7 -6 -10 20 -10 19 0 42 5 50 10 11 7 6 10 -20 10
-19 0 -42 -5 -50 -10z"/>
<path d="M7845 1650 c-3 -5 3 -10 14 -10 12 0 21 5 21 10 0 6 -6 10 -14 10 -8
0 -18 -4 -21 -10z"/>
<path d="M3186 1596 c-14 -25 -26 -51 -26 -58 0 -18 -48 -110 -62 -119 -6 -4
-26 -5 -43 -2 -23 4 -34 1 -38 -11 -8 -19 -7 -19 76 -41 52 -14 67 -22 67 -36
0 -24 -42 -35 -85 -22 -39 13 -59 3 -51 -24 7 -21 45 -43 73 -43 9 0 45 16 80
36 l64 36 37 -25 c75 -49 154 -88 175 -85 29 4 34 34 8 43 -12 3 -21 15 -21
25 0 18 60 128 87 161 7 8 13 23 13 32 0 16 -55 53 -122 83 -29 13 -38 23 -38
41 0 31 -26 40 -50 18 -19 -17 -21 -17 -60 9 -22 14 -44 26 -49 26 -5 0 -21
-20 -35 -44z m82 -45 c4 -25 -12 -41 -40 -41 -12 0 -18 8 -18 23 0 47 52 64
58 18z m62 -51 c0 -24 -26 -38 -42 -22 -16 16 -2 42 22 42 13 0 20 -7 20 -20z
m144 -33 c8 -12 5 -24 -12 -46 -12 -17 -22 -34 -22 -39 0 -4 -6 -17 -14 -27
-12 -16 -16 -17 -30 -6 -26 22 -20 51 10 51 21 0 25 4 22 23 -2 16 -11 23 -36
27 -36 5 -40 16 -18 42 13 15 20 16 52 4 21 -7 42 -20 48 -29z m-242 6 c8 -10
23 -37 34 -61 13 -32 22 -41 35 -37 19 6 99 -60 99 -82 0 -16 -46 -17 -55 -2
-4 5 -18 15 -32 20 -14 5 -27 18 -30 29 -4 16 -11 19 -47 14 -33 -4 -46 -1
-70 19 l-30 24 22 19 c12 10 22 28 22 40 0 37 26 46 52 17z"/>
<path d="M3203 1434 c-15 -7 -5 -34 12 -34 14 0 27 25 18 34 -7 7 -13 7 -30 0z"/>
<path d="M3940 1619 c0 -7 35 -19 58 -19 7 0 11 4 8 9 -7 11 -66 20 -66 10z"/>
<path d="M6035 1620 l-30 -8 32 -1 c17 0 35 4 38 9 7 11 3 11 -40 0z"/>
<path d="M7819 1614 c-12 -14 -11 -16 5 -13 11 2 21 10 24 17 5 17 -13 15 -29
-4z"/>
<path d="M5915 1593 c-32 -8 -42 -23 -14 -23 34 0 69 11 69 21 0 9 -21 10 -55
2z"/>
<path d="M7761 1579 c-17 -10 -34 -26 -37 -34 -4 -8 -10 -15 -14 -15 -17 0
-79 -46 -80 -58 0 -8 -9 -16 -20 -19 -11 -3 -20 -9 -20 -14 0 -5 -8 -9 -18 -9
-11 0 -27 -9 -37 -20 -10 -11 -24 -20 -32 -20 -7 0 -13 -7 -13 -15 0 -14 23
-11 45 7 6 5 21 17 34 28 13 11 30 20 38 20 7 0 16 7 19 15 4 8 12 15 20 15 8
0 19 9 26 20 7 11 17 20 22 20 5 0 16 7 25 15 48 43 60 54 76 62 10 6 13 13 8
16 -5 3 -24 -3 -42 -14z"/>
<path d="M2230 1580 c0 -5 5 -10 11 -10 5 0 7 5 4 10 -3 6 -8 10 -11 10 -2 0
-4 -4 -4 -10z"/>
<path d="M4070 1580 c20 -13 53 -13 45 0 -3 6 -18 10 -33 10 -21 0 -24 -2 -12
-10z"/>
<path d="M2926 1571 c-11 -17 6 -41 33 -48 50 -13 126 -9 126 6 0 8 -15 19
-35 24 -19 5 -39 13 -44 18 -13 12 -73 12 -80 0z"/>
<path d="M2255 1550 c3 -5 12 -10 19 -10 6 0 27 -16 46 -35 19 -19 41 -35 49
-35 14 0 -12 27 -71 73 -24 18 -53 23 -43 7z"/>
<path d="M4186 1551 c11 -11 94 -19 94 -10 0 9 -38 19 -74 19 -18 0 -26 -4
-20 -9z"/>
<path d="M5746 1551 c-16 -6 -17 -9 -5 -13 19 -7 67 1 75 13 6 11 -43 11 -70
0z"/>
<path d="M5595 1523 c-16 -3 -34 -9 -40 -15 -7 -8 -4 -9 8 -4 10 3 36 6 58 6
21 0 39 5 39 10 0 10 -10 11 -65 3z"/>
<path d="M4375 1510 c46 -12 113 -12 95 0 -8 5 -40 9 -70 9 -46 -1 -50 -3 -25
-9z"/>
<path d="M6640 1506 c0 -9 5 -16 10 -16 6 0 10 4 10 9 0 6 -4 13 -10 16 -5 3
-10 -1 -10 -9z"/>
<path d="M4585 1480 c17 -4 82 -7 145 -7 l115 0 -90 8 c-123 10 -211 9 -170
-1z"/>
<path d="M5240 1482 c-47 -2 -89 -7 -94 -12 -12 -12 245 -1 258 10 4 5 -11 8
-35 7 -24 -1 -82 -3 -129 -5z"/>
<path d="M4978 1463 c12 -2 30 -2 40 0 9 3 -1 5 -23 4 -22 0 -30 -2 -17 -4z"/>
<path d="M2390 1445 c12 -15 30 -12 30 6 0 5 -10 9 -21 9 -18 0 -19 -2 -9 -15z"/>
<path d="M2440 1410 c0 -5 9 -10 20 -10 11 0 20 5 20 10 0 6 -9 10 -20 10 -11
0 -20 -4 -20 -10z"/>
<path d="M2865 1394 c-17 -17 -10 -41 13 -48 26 -8 115 8 119 21 10 28 -107
52 -132 27z"/>
<path d="M2500 1380 c0 -5 5 -10 10 -10 6 0 10 5 10 10 0 6 -4 10 -10 10 -5 0
-10 -4 -10 -10z"/>
<path d="M2537 1354 c-11 -11 3 -24 25 -24 17 0 18 2 8 15 -13 16 -23 19 -33
9z"/>
<path d="M7448 1353 c-10 -3 -18 -9 -18 -14 0 -12 37 -12 45 0 7 12 -5 19 -27
14z"/>
<path d="M2595 1310 c-3 -5 3 -10 15 -10 12 0 18 5 15 10 -3 6 -10 10 -15 10
-5 0 -12 -4 -15 -10z"/>
<path d="M4185 1304 c-8 -9 -15 -27 -15 -42 0 -41 -20 -142 -42 -207 -20 -61
-51 -105 -74 -105 -6 0 -17 -7 -24 -15 -10 -12 -10 -18 0 -30 44 -53 133 37
155 157 8 45 21 50 87 38 70 -14 85 -7 98 43 6 23 15 57 20 75 5 19 7 39 4 45
-2 7 -32 20 -67 29 -100 27 -125 29 -142 12z m138 -46 c11 -6 17 -18 15 -31
-3 -19 -9 -22 -41 -21 -45 2 -83 33 -73 59 5 14 14 16 43 10 21 -4 46 -11 56
-17z m-55 -67 c9 -5 25 -12 35 -15 31 -10 16 -41 -20 -44 -40 -4 -73 13 -73
38 0 27 28 37 58 21z"/>
<path d="M7380 1305 c0 -19 11 -19 36 0 18 14 18 14 -8 15 -18 0 -28 -5 -28
-15z"/>
<path d="M2640 1281 c0 -12 29 -23 42 -15 6 4 5 10 -3 15 -18 11 -39 11 -39 0z"/>
<path d="M5555 1279 c-4 -6 -4 -30 0 -55 6 -43 5 -45 -27 -58 -18 -8 -60 -17
-93 -21 -73 -9 -95 -20 -95 -46 0 -26 24 -34 59 -19 53 22 155 39 169 28 31
-26 -6 -128 -64 -176 -23 -19 -59 -36 -91 -43 -30 -7 -57 -17 -60 -22 -10 -17
37 -47 72 -47 67 0 176 101 191 178 8 40 26 41 70 3 46 -41 143 -96 181 -104
23 -5 40 0 65 16 52 36 44 51 -32 58 -58 6 -114 25 -175 62 -46 27 -106 80
-102 90 2 6 45 17 95 24 115 17 145 27 140 51 -4 20 -25 20 -118 2 -115 -22
-124 -21 -131 22 -8 54 -38 84 -54 57z"/>
<path d="M7338 1273 c7 -3 16 -2 19 1 4 3 -2 6 -13 5 -11 0 -14 -3 -6 -6z"/>
<path d="M2705 1249 c-4 -5 -5 -11 -4 -13 38 -25 62 -36 80 -36 19 0 17 3 -12
23 -54 37 -57 38 -64 26z"/>
<path d="M4471 1242 c-6 -12 -11 -36 -11 -56 0 -19 -5 -47 -10 -62 -15 -38 0
-50 69 -58 77 -9 86 -25 71 -121 -6 -39 -16 -85 -21 -104 -9 -27 -8 -36 6 -50
15 -15 18 -14 36 8 13 16 19 39 19 75 0 28 12 105 26 171 14 66 27 132 30 147
7 29 -1 34 -90 49 -28 4 -65 11 -83 15 -25 5 -33 2 -42 -14z m153 -42 c5 -5 4
-21 -3 -39 -7 -16 -10 -39 -6 -50 7 -24 -29 -49 -48 -33 -7 6 -23 12 -37 14
-17 2 -26 10 -28 26 -3 20 1 22 43 22 53 0 60 23 9 28 -39 5 -50 17 -34 37 10
12 23 15 54 10 23 -4 45 -11 50 -15z"/>
<path d="M7264 1240 c-6 -6 -30 -21 -53 -34 -24 -12 -42 -27 -40 -32 4 -11 32
-6 40 8 7 11 45 34 72 44 9 3 17 10 17 15 0 12 -24 11 -36 -1z"/>
<path d="M3295 1220 c-19 -30 56 -119 90 -106 26 10 16 37 -27 77 -46 41 -53
44 -63 29z"/>
<path d="M2807 1184 c-10 -11 3 -24 24 -24 23 0 25 15 3 24 -19 7 -19 7 -27 0z"/>
<path d="M7108 1153 c-27 -7 -22 -23 7 -23 16 0 25 6 25 15 0 15 -2 16 -32 8z"/>
<path d="M2880 1140 c0 -5 9 -10 20 -10 11 0 20 5 20 10 0 6 -9 10 -20 10 -11
0 -20 -4 -20 -10z"/>
<path d="M7033 1113 c-20 -8 -15 -23 7 -23 11 0 20 7 20 15 0 15 -6 17 -27 8z"/>
<path d="M2940 1100 c0 -13 11 -13 30 0 12 8 11 10 -7 10 -13 0 -23 -4 -23
-10z"/>
<path d="M3010 1070 c0 -5 9 -10 21 -10 11 0 17 5 14 10 -3 6 -13 10 -21 10
-8 0 -14 -4 -14 -10z"/>
<path d="M6965 1070 c3 -5 15 -10 25 -10 10 0 22 5 25 10 4 6 -7 10 -25 10
-18 0 -29 -4 -25 -10z"/>
<path d="M3070 1040 c0 -12 48 -25 58 -16 8 9 -18 26 -40 26 -10 0 -18 -4 -18
-10z"/>
<path d="M6897 1044 c-4 -4 -4 -10 -1 -15 6 -10 34 0 34 12 0 10 -24 12 -33 3z"/>
<path d="M3150 1006 c0 -15 47 -28 56 -15 5 8 -27 29 -45 29 -6 0 -11 -6 -11
-14z"/>
<path d="M6823 1013 c-7 -3 -13 -9 -13 -14 0 -12 47 -12 54 0 7 10 -23 20 -41
14z"/>
<path d="M3220 973 c1 -15 130 -64 130 -50 0 3 -20 17 -44 31 -43 25 -86 34
-86 19z"/>
<path d="M6741 971 c-8 -5 -9 -11 -3 -15 13 -8 42 3 42 15 0 11 -21 11 -39 0z"/>
<path d="M6668 933 c7 -3 16 -2 19 1 4 3 -2 6 -13 5 -11 0 -14 -3 -6 -6z"/>
<path d="M3384 901 c8 -12 55 -20 61 -11 3 4 -5 10 -18 14 -32 8 -49 7 -43 -3z"/>
<path d="M6570 900 c-12 -8 -9 -10 12 -10 15 0 30 5 33 10 8 13 -25 13 -45 0z"/>
<path d="M3465 871 c7 -12 64 -25 73 -16 3 3 0 10 -8 15 -19 12 -73 13 -65 1z"/>
<path d="M6493 873 c-7 -2 -13 -8 -13 -12 0 -10 59 -1 66 10 5 9 -32 11 -53 2z"/>
<path d="M3575 830 c3 -5 18 -10 33 -10 15 -1 45 -9 67 -20 46 -22 68 -25 63
-8 -3 7 -22 16 -44 21 -21 4 -43 12 -48 17 -13 13 -79 13 -71 0z"/>
<path d="M6370 830 c-26 -16 -5 -19 40 -5 l45 14 -35 0 c-19 0 -42 -3 -50 -9z"/>
<path d="M6297 800 c-21 -4 -43 -13 -50 -19 -9 -10 -6 -11 18 -5 42 10 75 23
75 29 0 3 -1 4 -2 4 -2 -1 -20 -5 -41 -9z"/>
<path d="M3796 772 c-7 -12 16 -22 52 -22 16 0 22 4 17 9 -16 15 -62 24 -69
13z"/>
<path d="M6135 760 c-8 -12 42 -12 70 0 16 7 11 9 -22 9 -23 1 -45 -3 -48 -9z"/>
<path d="M3959 725 c25 -8 47 -13 49 -10 9 9 -3 14 -48 19 l-45 6 44 -15z"/>
<path d="M6025 730 c-16 -7 -13 -9 15 -9 19 0 44 4 55 9 16 7 13 9 -15 9 -19
0 -44 -4 -55 -9z"/>
<path d="M4050 700 c8 -5 33 -9 55 -9 35 1 37 2 15 9 -14 4 -38 8 -55 9 -23 0
-26 -2 -15 -9z"/>
<path d="M5830 689 c-141 -32 -129 -34 48 -8 45 6 82 16 82 20 0 13 -34 10
-130 -12z"/>
<path d="M4250 660 c8 -5 29 -9 45 -9 26 0 27 2 10 9 -11 5 -31 9 -45 9 -20 1
-22 -1 -10 -9z"/>
<path d="M5668 653 c12 -2 30 -2 40 0 9 3 -1 5 -23 4 -22 0 -30 -2 -17 -4z"/>
<path d="M4490 632 c8 -5 62 -12 120 -15 122 -6 84 7 -48 17 -53 4 -81 3 -72
-2z"/>
<path d="M5425 630 l-60 -7 80 -1 c44 0 89 3 100 8 24 10 -27 10 -120 0z"/>
<path d="M4878 603 c23 -2 59 -2 80 0 20 2 1 4 -43 4 -44 0 -61 -2 -37 -4z"/>
<path d="M5018 603 c7 -3 16 -2 19 1 4 3 -2 6 -13 5 -11 0 -14 -3 -6 -6z"/>
</g>
</svg>
